<svg width="15" height="18" viewBox="0 0 15 18" fill="none" xmlns="http://www.w3.org/2000/svg">
<path fill-rule="evenodd" clip-rule="evenodd" d="M11.1131 0.643091L10.2009 1.55427C11.3119 2.28927 11.9774 3.53488 11.9706 4.86679C11.9706 5.07337 11.803 5.24084 11.5964 5.24084H3.36553C3.15891 5.24084 2.9914 5.07337 2.9914 4.86679C2.98452 3.53485 3.64996 2.28924 4.76102 1.55423L3.84964 0.64232C3.70962 0.497388 3.70962 0.267595 3.84964 0.122629C3.9932 -0.0259498 4.23006 -0.0300877 4.37867 0.113441L5.44119 1.17649C6.74254 0.611321 8.22013 0.611321 9.52148 1.17649L10.584 0.114178L10.5932 0.10499C10.7419 -0.0385037 10.9786 -0.0344009 11.1222 0.114178C11.2657 0.262791 11.2617 0.499562 11.1131 0.643091ZM0 7.11114C0 6.49141 0.502516 5.98901 1.12239 5.98901C1.74226 5.98901 2.24479 6.49141 2.24479 7.11114V12.3478C2.24479 12.9675 1.74226 13.4699 1.12239 13.4699C0.502516 13.4699 0 12.9675 0 12.3478V7.11114ZM12.7215 7.11114C12.7215 6.49141 13.2239 5.98901 13.8439 5.98901C14.4637 5.98901 14.9662 6.49141 14.9662 7.11114V12.3478C14.9662 12.9675 14.4637 13.4699 13.8439 13.4699C13.2239 13.4699 12.7215 12.9675 12.7215 12.3478V7.11114ZM11.5963 5.98901H3.36549C3.15886 5.98901 2.99134 6.15649 2.99134 6.36306V12.3478C2.99117 13.2367 3.61677 14.0029 4.48788 14.1806V16.8363C4.48788 17.4561 4.9904 17.9585 5.61027 17.9585C6.23014 17.9585 6.73266 17.4561 6.73266 16.8363V14.218H8.2292V16.8363C8.2292 17.4561 8.73171 17.9585 9.3516 17.9585C9.97143 17.9585 10.474 17.4561 10.474 16.8363V14.1806C11.3451 14.0029 11.9707 13.2367 11.9705 12.3478V6.36306C11.9705 6.15649 11.8029 5.98901 11.5963 5.98901Z" fill="black"/>
</svg>
