<svg width="17" height="20" viewBox="0 0 17 20" fill="none" xmlns="http://www.w3.org/2000/svg">
<path d="M1.24998 6.66986C0.559641 6.66986 0 7.22938 0 7.91956V13.7515C0 14.4417 0.559641 15.0012 1.24998 15.0012C1.94032 15.0012 2.49997 14.4417 2.49997 13.7515V7.91956C2.49997 7.22938 1.94032 6.66986 1.24998 6.66986Z" fill="black"/>
<path d="M15.418 6.66986C14.7276 6.66986 14.168 7.22938 14.168 7.91956V13.7515C14.168 14.4417 14.7276 15.0012 15.418 15.0012C16.1083 15.0012 16.6679 14.4417 16.6679 13.7515V7.91956C16.6679 7.22938 16.1083 6.66986 15.418 6.66986Z" fill="black"/>
<path d="M12.9152 6.66986H3.74871C3.51859 6.66986 3.33203 6.85638 3.33203 7.08644V13.7515C3.33184 14.7414 4.02855 15.5947 4.99869 15.7927V18.7503C4.99869 19.4405 5.55833 20 6.24867 20C6.93901 20 7.49865 19.4405 7.49865 18.7503V15.8343H9.16531V18.7503C9.16531 19.4405 9.72495 20 10.4153 20C11.1056 20 11.6653 19.4405 11.6653 18.7503V15.7927C12.6354 15.5947 13.3321 14.7414 13.3319 13.7515V7.08644C13.3319 6.85638 13.1453 6.66986 12.9152 6.66986Z" fill="black"/>
<path d="M11.3612 1.73095L12.377 0.716196C12.5425 0.556351 12.547 0.292664 12.3872 0.127157C12.2273 -0.0383115 11.9636 -0.0428807 11.798 0.116925C11.7945 0.120283 11.7912 0.123681 11.7878 0.127157L10.6045 1.31023C9.15521 0.680814 7.50965 0.680814 6.06037 1.31023L4.87707 0.126337C4.71156 -0.0335079 4.44778 -0.0288997 4.2879 0.136569C4.13196 0.298014 4.13196 0.55393 4.2879 0.715337L5.30288 1.73091C4.06552 2.54947 3.32443 3.93668 3.33209 5.42003C3.33209 5.6501 3.51865 5.83661 3.74876 5.83661H12.9153C13.1454 5.83661 13.332 5.6501 13.332 5.42003C13.3396 3.93672 12.5985 2.54951 11.3612 1.73095Z" fill="black"/>
<ellipse cx="6.24675" cy="3.75398" rx="0.416674" ry="0.41658" fill="black"/>
<ellipse cx="10.4147" cy="3.75337" rx="0.416674" ry="0.41658" fill="black"/>
</svg>
