<svg width="16" height="19" viewBox="0 0 16 19" fill="none" xmlns="http://www.w3.org/2000/svg">
<path fill-rule="evenodd" clip-rule="evenodd" d="M11.7325 0.678901L10.7696 1.64081C11.9424 2.41675 12.645 3.73172 12.6377 5.13779C12.6377 5.35588 12.4609 5.53267 12.2427 5.53267H3.55355C3.33542 5.53267 3.15857 5.35588 3.15857 5.13779C3.15131 3.73168 3.85381 2.41671 5.02674 1.64077L4.06461 0.678086C3.91679 0.525085 3.91679 0.282495 4.06461 0.129457C4.21617 -0.0273948 4.46621 -0.031763 4.6231 0.119758L5.74478 1.242C7.11859 0.645361 8.67846 0.645361 10.0523 1.242L11.174 0.120535L11.1749 0.119625L11.1836 0.110836C11.3406 -0.0406478 11.5906 -0.0363165 11.7421 0.120535C11.8936 0.277424 11.8894 0.52738 11.7325 0.678901ZM0 7.5071C0 6.85286 0.530498 6.32248 1.18489 6.32248C1.83928 6.32248 2.36979 6.85286 2.36979 7.5071V13.0353C2.36979 13.6896 1.83928 14.22 1.18489 14.22C0.530498 14.22 0 13.6896 0 13.0353V7.5071ZM13.4302 7.5071C13.4302 6.85286 13.9606 6.32248 14.6151 6.32248C15.2694 6.32248 15.7999 6.85286 15.7999 7.5071V13.0353C15.7999 13.6896 15.2694 14.22 14.6151 14.22C13.9606 14.22 13.4302 13.6896 13.4302 13.0353V7.5071ZM12.2427 6.32248H3.5535C3.33536 6.32248 3.15852 6.49928 3.15852 6.71736V13.0353C3.15834 13.9737 3.81877 14.7826 4.73839 14.9703V17.7738C4.73839 18.4281 5.26889 18.9585 5.92328 18.9585C6.57767 18.9585 7.10817 18.4281 7.10817 17.7738V15.0097H8.68804V17.7738C8.68804 18.4281 9.21853 18.9585 9.87293 18.9585C10.5273 18.9585 11.0578 18.4281 11.0578 17.7738V14.9703C11.9774 14.7826 12.6378 13.9737 12.6377 13.0353V6.71736C12.6377 6.49928 12.4608 6.32248 12.2427 6.32248Z" fill="black"/>
</svg>
