<svg width="15" height="19" viewBox="0 0 15 19" fill="none" xmlns="http://www.w3.org/2000/svg">
<path fill-rule="evenodd" clip-rule="evenodd" d="M10.3403 0C10.4042 2.40291 8.75505 4.06993 7.10781 3.96538C6.83637 2.04777 8.75484 0 10.3403 0ZM0 9.76999C0 12.5662 2.13516 18.0568 4.71641 18.0723H4.73328C5.37511 18.0723 5.94097 17.8522 6.44108 17.6577L6.44515 17.6561C6.81185 17.5128 7.15821 17.3779 7.43211 17.3779C7.97247 17.3779 8.29949 17.5226 8.67858 17.6907C9.05321 17.8568 9.47791 18.0449 10.0789 18.0449C12.5345 18.0449 14.2257 13.3041 14.2257 13.0833C14.2257 12.7458 13.979 12.5911 13.7401 12.4414L13.7389 12.4405L13.7382 12.4402C13.1961 12.1003 12.0691 11.3938 12.0691 9.55804C12.0691 8.00749 13.0649 7.22466 13.6108 6.7955L13.6109 6.79543L13.9929 6.49502L13.7274 6.07932C12.5941 4.30585 10.709 4.16366 10.0874 4.16366H10.0823C9.24976 4.16366 8.53471 4.45992 7.9601 4.69828L7.94858 4.70303C7.68203 4.81301 7.38366 4.93612 7.25599 4.93612C7.03965 4.93612 6.65064 4.7872 6.27449 4.64293C5.7366 4.43612 5.12677 4.20242 4.55565 4.20242C3.28835 4.20242 0 5.2024 0 9.76999Z" fill="black"/>
</svg>
