<svg width="17" height="21" viewBox="0 0 17 21" fill="none" xmlns="http://www.w3.org/2000/svg">
<path d="M5.32652 20.41C2.41136 20.3925 0 14.1917 0 11.0338C0 5.87531 3.71372 4.74598 5.14496 4.74598C5.78996 4.74598 6.47868 5.00991 7.08615 5.24347C7.51095 5.4064 7.95028 5.57458 8.19462 5.57458C8.34088 5.57458 8.68553 5.43151 8.98981 5.30598C9.63875 5.03678 10.4463 4.70221 11.3866 4.70221C11.3883 4.70221 11.3905 4.70221 11.3922 4.70221C12.0943 4.70221 14.2233 4.86278 15.5032 6.86567L15.803 7.33514L15.3716 7.67442C14.7551 8.15908 13.6304 9.04317 13.6304 10.7944C13.6304 12.8685 14.9042 13.6662 15.5161 14.0498C15.7863 14.2192 16.0659 14.3938 16.0659 14.7757C16.0659 15.025 14.156 20.3791 11.3827 20.3791C10.704 20.3791 10.2243 20.1666 9.80123 19.9791C9.3731 19.7893 9.00378 19.6258 8.39352 19.6258C8.08418 19.6258 7.69301 19.7782 7.27888 19.94C6.71296 20.1601 6.0724 20.41 5.34557 20.41H5.32652Z" fill="black"/>
<path d="M11.6779 0C11.7501 2.71374 9.88758 4.5964 8.02726 4.47833C7.72071 2.31267 9.88735 0 11.6779 0Z" fill="black"/>
</svg>
