<svg width="16" height="21" viewBox="0 0 16 21" fill="none" xmlns="http://www.w3.org/2000/svg">
<path fill-rule="evenodd" clip-rule="evenodd" d="M11.4846 0C11.5556 2.66883 9.72394 4.52033 7.89441 4.40421C7.59293 2.27439 9.72371 0 11.4846 0ZM0 10.8512C0 13.9569 2.37145 20.0551 5.23836 20.0723H5.2571C5.96996 20.0723 6.59844 19.8278 7.15389 19.6118L7.15841 19.61C7.56569 19.4509 7.95038 19.301 8.2546 19.301C8.85476 19.301 9.21797 19.4618 9.63901 19.6485C10.0551 19.8329 10.5268 20.0419 11.1943 20.0419C13.9217 20.0419 15.8 14.7764 15.8 14.5312C15.8 14.1563 15.526 13.9845 15.2607 13.8182L15.2593 13.8173L15.2586 13.8169C14.6565 13.4394 13.4048 12.6547 13.4048 10.6158C13.4048 8.89365 14.5108 8.02419 15.1171 7.54754L15.1172 7.54746L15.5415 7.2138L15.2466 6.7521C13.9879 4.78236 11.8941 4.62444 11.2037 4.62444H11.1981C10.2734 4.62444 9.47922 4.95348 8.84102 5.21822L8.82822 5.2235C8.53217 5.34565 8.20079 5.48238 8.05899 5.48238C7.8187 5.48238 7.38664 5.31698 6.96887 5.15675C6.37145 4.92705 5.69413 4.66749 5.05981 4.66749C3.65226 4.66749 0 5.77813 0 10.8512Z" fill="black"/>
</svg>
