<svg width="29" height="19" viewBox="0 0 29 19" fill="none" xmlns="http://www.w3.org/2000/svg">
<path fill-rule="evenodd" clip-rule="evenodd" d="M11.9005 8.71353C12.4755 8.4039 12.9103 8.05905 13.2082 7.68639C13.7382 7.01524 13.9997 6.1253 13.9997 5.02215C13.9997 3.94867 13.7382 3.03093 13.2151 2.2615C12.3421 1.00818 10.8647 0.366686 8.77581 0.333313H0.5V18.4157H8.21635C9.08585 18.4157 9.89126 18.3359 10.6361 18.1728C11.3808 18.0078 12.0252 17.7056 12.5708 17.2643C13.0557 16.8805 13.4611 16.404 13.7832 15.8423C14.2924 14.9931 14.5471 14.0309 14.5471 12.9593C14.5471 11.921 14.3236 11.0366 13.8802 10.3098C13.4316 9.58307 12.7734 9.05096 11.9005 8.71353ZM3.91325 3.47423H7.64065C8.45992 3.47423 9.13543 3.56879 9.66544 3.75605C10.2786 4.02859 10.5852 4.58294 10.5852 5.42838C10.5852 6.18668 10.3513 6.71693 9.88888 7.01543C9.42295 7.31393 8.81846 7.4641 8.07714 7.4641H3.91325V3.47423ZM8.07194 15.2786C8.815 15.2786 9.39524 15.1729 9.80747 14.9597C10.5592 14.563 10.9333 13.8139 10.9333 12.7015C10.9333 11.7578 10.5713 11.1126 9.84384 10.7603C9.43507 10.5657 8.86349 10.4619 8.1291 10.4563H3.91325V15.2786H8.07194Z" fill="black"/>
<rect x="18.5488" y="0.333313" width="7.33876" height="2.25079" fill="black"/>
<path fill-rule="evenodd" clip-rule="evenodd" d="M27.3743 7.42157C27.8974 8.21695 28.2334 9.13841 28.3859 10.1859C28.4759 10.7978 28.5106 11.6858 28.4967 12.8409H19.27C19.3254 14.1814 19.7619 15.1232 20.5968 15.6609C21.1025 15.9965 21.7087 16.1652 22.4241 16.1652C23.1758 16.1652 23.789 15.9612 24.2601 15.5533C24.5199 15.3309 24.7468 15.0249 24.9425 14.6337H28.3235C28.2334 15.4254 27.8229 16.2319 27.0972 17.0514C25.9627 18.3492 24.3744 19 22.3323 19C20.6453 19 19.1591 18.453 17.8722 17.3555C16.5801 16.2597 15.9375 14.4743 15.9375 12.0029C15.9375 9.68534 16.5195 7.90733 17.6817 6.67069C18.8474 5.43776 20.3543 4.81666 22.2093 4.81666C23.3144 4.81481 24.3068 5.02431 25.1885 5.44332C26.0735 5.86048 26.801 6.52052 27.3743 7.42157ZM20.2344 8.46304C19.7668 8.9729 19.4723 9.6626 19.3511 10.5321H25.0582C24.9976 9.60327 24.7014 8.9006 24.1766 8.41669C23.6449 7.9365 22.9919 7.69733 22.2107 7.69733C21.3637 7.69918 20.7021 7.95504 20.2344 8.46304Z" fill="black"/>
</svg>
