<svg width="23" height="15" viewBox="0 0 23 15" fill="none" xmlns="http://www.w3.org/2000/svg">
<path fill-rule="evenodd" clip-rule="evenodd" d="M9.16108 6.73407C9.62317 6.48526 9.97253 6.20816 10.2119 5.9087C10.6378 5.36938 10.8479 4.65425 10.8479 3.7678C10.8479 2.90519 10.6378 2.16772 10.2175 1.54943C9.51589 0.542301 8.32874 0.0268174 6.65017 0H0V14.5304H6.20061C6.89932 14.5304 7.54651 14.4663 8.14505 14.3353C8.74346 14.2026 9.26128 13.9598 9.69968 13.6052C10.0894 13.2967 10.4151 12.9139 10.6739 12.4625C11.0831 11.7801 11.2878 11.007 11.2878 10.1458C11.2878 9.3115 11.1082 8.60082 10.7519 8.01679C10.3914 7.4328 9.8625 7.00522 9.16108 6.73407ZM2.74278 2.52394H5.73799C6.39633 2.52394 6.93915 2.59993 7.36505 2.7504C7.85777 2.9694 8.10414 3.41486 8.10414 4.09423C8.10414 4.70357 7.91618 5.12967 7.5446 5.36953C7.1702 5.6094 6.68445 5.73007 6.08875 5.73007H2.74278V2.52394ZM6.08457 12.0096C6.68167 12.0096 7.14793 11.9246 7.47918 11.7533C8.08325 11.4346 8.38386 10.8326 8.38386 9.93864C8.38386 9.18035 8.09298 8.66189 7.50841 8.37879C7.17993 8.22242 6.72063 8.13901 6.1305 8.13451H2.74278V12.0096H6.08457ZM20.4011 0H14.504V1.80866H20.4011V0ZM22.4073 7.91727C22.2848 7.07553 22.0148 6.33508 21.5944 5.69594C21.1338 4.97188 20.5491 4.44149 19.838 4.10628C19.1295 3.76958 18.332 3.60122 17.444 3.60272C15.9534 3.60272 14.7424 4.10181 13.8058 5.09256C12.8718 6.08628 12.4041 7.51503 12.4041 9.37735C12.4041 11.3633 12.9205 12.7979 13.9588 13.6785C14.993 14.5604 16.1872 15 17.5428 15C19.1838 15 20.4601 14.477 21.3718 13.4341C21.9549 12.7756 22.2848 12.1276 22.3571 11.4913H19.6403C19.483 11.8058 19.3007 12.0516 19.092 12.2303C18.7134 12.5581 18.2206 12.722 17.6166 12.722C17.0417 12.722 16.5546 12.5865 16.1483 12.3168C15.4773 11.8847 15.1266 11.1279 15.082 10.0508H22.4963C22.5075 9.12253 22.4796 8.40896 22.4073 7.91727ZM15.1472 8.19546C15.2447 7.49675 15.4812 6.94253 15.857 6.53283C16.2329 6.12461 16.7645 5.91901 17.4451 5.91753C18.0728 5.91753 18.5976 6.10972 19.0248 6.49558C19.4466 6.88444 19.6846 7.44908 19.7333 8.19546H15.1472Z" fill="black"/>
</svg>
