<svg width="40" height="40" viewBox="0 0 40 40" fill="none" xmlns="http://www.w3.org/2000/svg">
<path fill-rule="evenodd" clip-rule="evenodd" d="M17.8723 18.7811C18.3704 18.5305 18.747 18.2515 19.005 17.95C19.4641 17.4069 19.6907 16.6868 19.6907 15.7942C19.6907 14.9255 19.4641 14.1829 19.011 13.5603C18.2549 12.5462 16.9751 12.0271 15.1657 12.0001H7.99707V26.6317H14.6811C15.4342 26.6317 16.1319 26.5672 16.777 26.4351C17.4222 26.3016 17.9803 26.0571 18.4529 25.7C18.873 25.3895 19.2241 25.0039 19.5031 24.5494C19.9442 23.8623 20.1648 23.0837 20.1648 22.2165C20.1648 21.3764 19.9712 20.6608 19.5872 20.0727C19.1986 19.4847 18.6284 19.0541 17.8723 18.7811ZM10.9537 14.541H14.1826C14.8924 14.541 15.4775 14.6175 15.9367 14.7691C16.4678 14.9896 16.7334 15.4382 16.7334 16.1224C16.7334 16.736 16.5309 17.1651 16.1302 17.4066C15.7266 17.6482 15.203 17.7697 14.5608 17.7697H10.9537V14.541ZM14.5563 24.0939C15.2 24.0939 15.7026 24.0083 16.0597 23.8358C16.7109 23.5147 17.035 22.9086 17.035 22.0084C17.035 21.2447 16.7214 20.7226 16.0912 20.4376C15.7371 20.28 15.242 20.196 14.6058 20.1915H10.9537V24.0939H14.5563Z" fill="black"/>
<rect x="23.3408" y="12.6825" width="6.35742" height="1.8214" fill="black"/>
<path fill-rule="evenodd" clip-rule="evenodd" d="M31.0247 17.6332C31.4778 18.2769 31.7689 19.0225 31.9009 19.8702C31.979 20.3653 32.009 21.084 31.997 22.0187H24.0041C24.0521 23.1034 24.4302 23.8656 25.1534 24.3007C25.5915 24.5722 26.1167 24.7088 26.7364 24.7088C27.3876 24.7088 27.9187 24.5437 28.3269 24.2137C28.5519 24.0336 28.7485 23.7861 28.918 23.4695H31.8469C31.7689 24.1101 31.4133 24.7628 30.7846 25.4259C29.8018 26.4762 28.4259 27.0028 26.6569 27.0028C25.1954 27.0028 23.908 26.5602 22.7932 25.672C21.6739 24.7853 21.1172 23.3405 21.1172 21.3405C21.1172 19.4651 21.6213 18.0263 22.6281 17.0256C23.6379 16.0279 24.9433 15.5253 26.5503 15.5253C27.5076 15.5238 28.3674 15.6933 29.1311 16.0324C29.8978 16.37 30.528 16.9041 31.0247 17.6332ZM24.8372 18.4767C24.4321 18.8893 24.177 19.4474 24.072 20.151H29.016C28.9635 19.3994 28.7069 18.8307 28.2522 18.4392C27.7916 18.0506 27.2259 17.857 26.5492 17.857C25.8155 17.8585 25.2423 18.0656 24.8372 18.4767Z" fill="black"/>
</svg>
