<svg width="24" height="16" viewBox="0 0 24 16" fill="none" xmlns="http://www.w3.org/2000/svg">
<path fill-rule="evenodd" clip-rule="evenodd" d="M9.64967 7.09322C10.1364 6.83114 10.5044 6.53926 10.7565 6.22383C11.2051 5.65575 11.4265 4.90248 11.4265 3.96875C11.4265 3.06013 11.2051 2.28333 10.7624 1.63207C10.0234 0.571224 8.77294 0.0282477 7.00485 0H0V15.3054H6.53131C7.26728 15.3054 7.94899 15.2378 8.57945 15.0998C9.20978 14.9601 9.75521 14.7043 10.217 14.3308C10.6275 14.0059 10.9706 13.6026 11.2432 13.1272C11.6742 12.4084 11.8898 11.594 11.8898 10.6869C11.8898 9.80811 11.7006 9.05953 11.3253 8.44435C10.9456 7.82922 10.3885 7.37883 9.64967 7.09322ZM2.88906 2.65855H6.04402C6.73747 2.65855 7.30924 2.73859 7.75785 2.89709C8.27685 3.12777 8.53636 3.59699 8.53636 4.31259C8.53636 4.95443 8.33838 5.40325 7.94698 5.65591C7.55261 5.90857 7.04095 6.03567 6.41348 6.03567H2.88906V2.65855ZM6.40908 12.6501C7.03802 12.6501 7.52915 12.5606 7.87807 12.3801C8.51436 12.0444 8.831 11.4103 8.831 10.4687C8.831 9.66997 8.5246 9.12386 7.90886 8.82566C7.56286 8.66095 7.07906 8.57309 6.45746 8.56835H2.88906V12.6501H6.40908ZM21.4892 0H15.2775V1.90512H21.4892V0ZM23.6024 8.33952C23.4733 7.45289 23.1889 6.67295 22.7461 5.99972C22.2609 5.23705 21.6451 4.67837 20.896 4.32528C20.1497 3.97062 19.3097 3.79329 18.3743 3.79486C16.8042 3.79486 15.5287 4.32057 14.5421 5.36416C13.5583 6.41088 13.0657 7.91583 13.0657 9.87747C13.0657 11.9693 13.6096 13.4805 14.7033 14.408C15.7926 15.337 17.0505 15.8 18.4784 15.8C20.2069 15.8 21.5513 15.2491 22.5116 14.1506C23.1258 13.457 23.4733 12.7744 23.5495 12.1042H20.6878C20.5221 12.4354 20.3301 12.6944 20.1102 12.8826C19.7114 13.2279 19.1924 13.4005 18.5562 13.4005C17.9506 13.4005 17.4375 13.2578 17.0095 12.9737C16.3028 12.5186 15.9333 11.7214 15.8864 10.5868H23.6961C23.7079 9.60907 23.6785 8.85744 23.6024 8.33952ZM15.9551 8.63255C16.0577 7.89658 16.3069 7.3128 16.7027 6.88125C17.0986 6.45126 17.6586 6.23469 18.3755 6.23313C19.0367 6.23313 19.5895 6.43557 20.0395 6.84201C20.4837 7.25161 20.7344 7.84636 20.7857 8.63255H15.9551Z" fill="black"/>
</svg>
