<svg width="30" height="30" viewBox="0 0 30 30" fill="none" xmlns="http://www.w3.org/2000/svg">
<path fill-rule="evenodd" clip-rule="evenodd" d="M13.4025 14.086C13.7761 13.8981 14.0585 13.6888 14.2521 13.4626C14.5964 13.0553 14.7663 12.5152 14.7663 11.8458C14.7663 11.1943 14.5964 10.6373 14.2566 10.1704C13.6894 9.4098 12.7296 9.0205 11.3725 9.00024H5.99609V19.9739H11.0091C11.574 19.9739 12.0972 19.9255 12.5811 19.8265C13.0649 19.7264 13.4835 19.543 13.838 19.2752C14.153 19.0423 14.4163 18.7531 14.6256 18.4122C14.9565 17.8969 15.1219 17.3129 15.1219 16.6626C15.1219 16.0325 14.9767 15.4958 14.6887 15.0547C14.3972 14.6137 13.9696 14.2907 13.4025 14.086ZM8.21777 10.9058H10.6395C11.1718 10.9058 11.6107 10.9631 11.955 11.0768C12.3534 11.2422 12.5526 11.5787 12.5526 12.0918C12.5526 12.552 12.4007 12.8738 12.1002 13.055C11.7975 13.2361 11.4047 13.3273 10.9231 13.3273H8.21777V10.9058ZM10.9197 18.0705C11.4025 18.0705 11.7795 18.0064 12.0473 17.877C12.5357 17.6362 12.7788 17.1816 12.7788 16.5064C12.7788 15.9337 12.5436 15.5421 12.0709 15.3283C11.8054 15.2101 11.434 15.1471 10.9568 15.1437H8.21777V18.0705H10.9197Z" fill="#6D72DF"/>
<rect x="17.5039" y="9.51172" width="4.76806" height="1.36605" fill="#6D72DF"/>
<path fill-rule="evenodd" clip-rule="evenodd" d="M23.2705 13.2248C23.6103 13.7075 23.8286 14.2668 23.9277 14.9025C23.9862 15.2738 24.0087 15.8128 23.9997 16.5139H18.005C18.041 17.3274 18.3246 17.899 18.867 18.2254C19.1956 18.429 19.5895 18.5314 20.0542 18.5314C20.5426 18.5314 20.941 18.4077 21.2471 18.1601C21.4159 18.0251 21.5633 17.8394 21.6905 17.602H23.8871C23.8286 18.0825 23.5619 18.5719 23.0904 19.0693C22.3533 19.857 21.3214 20.2519 19.9946 20.2519C18.8985 20.2519 17.933 19.92 17.0968 19.2538C16.2573 18.5888 15.8398 17.5052 15.8398 16.0053C15.8398 14.5987 16.218 13.5196 16.9731 12.7691C17.7304 12.0208 18.7095 11.6438 19.9147 11.6438C20.6327 11.6427 21.2775 11.7698 21.8503 12.0241C22.4253 12.2773 22.898 12.6779 23.2705 13.2248ZM18.6296 13.8576C18.3257 14.167 18.1344 14.5856 18.0557 15.1134H21.7637C21.7243 14.5496 21.5318 14.1232 21.1909 13.8295C20.8454 13.538 20.4211 13.3929 19.9136 13.3929C19.3633 13.394 18.9334 13.5493 18.6296 13.8576Z" fill="#6D72DF"/>
</svg>
