<svg width="21" height="22" viewBox="0 0 21 22" fill="none" xmlns="http://www.w3.org/2000/svg">
<path d="M6.71324 20.9776C7.39416 21.1 7.64383 20.6975 7.64383 20.3523C7.64383 20.0435 7.63248 19.2252 7.62681 18.1411C3.8386 18.9252 3.03965 16.3965 3.03965 16.3965C2.42001 14.8956 1.5246 14.4941 1.5246 14.4941C0.290995 13.688 1.61993 13.7045 1.61993 13.7045C2.98745 13.795 3.70582 15.0444 3.70582 15.0444C4.92014 17.0328 6.89368 16.4582 7.6722 16.1263C7.79477 15.2849 8.14544 14.7125 8.53471 14.3872C5.51027 14.0618 2.33149 12.9436 2.33149 7.96109C2.33149 6.54177 2.85921 5.38161 3.73306 4.47179C3.57985 4.14315 3.12023 2.82088 3.85222 1.02992C3.85222 1.02992 4.99277 0.681429 7.5973 2.36322C8.68678 2.07428 9.84435 1.93091 11.0019 1.9243C12.1595 1.93091 13.3171 2.07428 14.4065 2.36322C16.994 0.681429 18.1346 1.02992 18.1346 1.02992C18.8666 2.82088 18.407 4.14315 18.2708 4.47179C19.139 5.38161 19.6667 6.54177 19.6667 7.96109C19.6667 12.9568 16.4833 14.0563 13.4532 14.3761C13.9299 14.7665 14.3725 15.5639 14.3725 16.7825C14.3725 18.5227 14.3555 19.9211 14.3555 20.3434C14.3555 20.6842 14.5938 21.0912 15.2917 20.961" stroke="black" stroke-width="1.2"/>
</svg>
