<svg width="30" height="30" viewBox="0 0 30 30" fill="none" xmlns="http://www.w3.org/2000/svg">
<path d="M11.8358 23.9096C12.4122 24.0132 12.6235 23.6725 12.6235 23.3803C12.6235 23.119 12.6139 22.4263 12.6091 21.5087C9.40268 22.1724 8.72642 20.032 8.72642 20.032C8.20194 18.7616 7.44404 18.4218 7.44404 18.4218C6.39988 17.7395 7.52473 17.7535 7.52473 17.7535C8.68224 17.83 9.29029 18.8876 9.29029 18.8876C10.3181 20.5706 11.9886 20.0843 12.6475 19.8033C12.7513 19.0911 13.0481 18.6066 13.3776 18.3313C10.8176 18.0559 8.12702 17.1094 8.12702 12.8921C8.12702 11.6907 8.57369 10.7087 9.31334 9.93862C9.18366 9.66045 8.79462 8.54125 9.4142 7.02532C9.4142 7.02532 10.3796 6.73035 12.5841 8.15386C13.5063 7.9093 14.4861 7.78795 15.4659 7.78235C16.4457 7.78795 17.4255 7.9093 18.3477 8.15386C20.5378 6.73035 21.5032 7.02532 21.5032 7.02532C22.1228 8.54125 21.7337 9.66045 21.6185 9.93862C22.3533 10.7087 22.8 11.6907 22.8 12.8921C22.8 17.1206 20.1055 18.0512 17.5408 18.3219C17.9442 18.6524 18.3189 19.3273 18.3189 20.3587C18.3189 21.8317 18.3044 23.0153 18.3044 23.3728C18.3044 23.6613 18.5062 24.0057 19.0969 23.8956" stroke="#6D72DF" stroke-width="1.2"/>
</svg>
