<svg width="18" height="19" viewBox="0 0 18 19" fill="none" xmlns="http://www.w3.org/2000/svg">
<path d="M5.83584 17.9096C6.41219 18.0132 6.62352 17.6725 6.62352 17.3803C6.62352 17.1189 6.61391 16.4263 6.60911 15.5087C3.40267 16.1724 2.72641 14.032 2.72641 14.032C2.20193 12.7616 1.44404 12.4218 1.44404 12.4218C0.399879 11.7395 1.52473 11.7534 1.52473 11.7534C2.68223 11.83 3.29028 12.8876 3.29028 12.8876C4.31811 14.5706 5.98857 14.0842 6.64753 13.8033C6.75128 13.0911 7.04809 12.6066 7.37758 12.3313C4.81761 12.0559 2.12701 11.1094 2.12701 6.89205C2.12701 5.6907 2.57369 4.70871 3.31334 3.93862C3.18365 3.66045 2.79462 2.54124 3.4142 1.02532C3.4142 1.02532 4.37959 0.730351 6.58413 2.15386C7.5063 1.9093 8.4861 1.78795 9.46588 1.78235C10.4457 1.78795 11.4255 1.9093 12.3476 2.15386C14.5378 0.730351 15.5032 1.02532 15.5032 1.02532C16.1228 2.54124 15.7338 3.66045 15.6185 3.93862C16.3533 4.70871 16.8 5.6907 16.8 6.89205C16.8 11.1206 14.1055 12.0512 11.5407 12.3219C11.9442 12.6523 12.3188 13.3273 12.3188 14.3587C12.3188 15.8317 12.3045 17.0153 12.3045 17.3728C12.3045 17.6612 12.5062 18.0057 13.0969 17.8955" stroke="black" stroke-width="1.2"/>
</svg>
