<svg width="40" height="40" viewBox="0 0 40 40" fill="none" xmlns="http://www.w3.org/2000/svg">
<path d="M14.852 31.973C15.6691 32.1199 15.9687 31.6368 15.9687 31.2226C15.9687 30.8521 15.955 29.8701 15.9482 28.5692C11.4024 29.5102 10.4437 26.4757 10.4437 26.4757C9.70012 24.6746 8.62561 24.1928 8.62561 24.1928C7.14528 23.2255 8.74001 23.2453 8.74001 23.2453C10.381 23.3538 11.2431 24.8532 11.2431 24.8532C12.7002 27.2392 15.0685 26.5498 16.0027 26.1514C16.1498 25.1417 16.5706 24.4549 17.0377 24.0645C13.4084 23.6741 9.59389 22.3322 9.59389 16.3532C9.59389 14.65 10.2271 13.2578 11.2757 12.166C11.0919 11.7717 10.5403 10.1849 11.4187 8.03578C11.4187 8.03578 12.7874 7.61759 15.9128 9.63574C17.2202 9.28901 18.6093 9.11698 19.9984 9.10903C21.3875 9.11698 22.7765 9.28901 24.0839 9.63574C27.1889 7.61759 28.5576 8.03578 28.5576 8.03578C29.436 10.1849 28.8844 11.7717 28.721 12.166C29.7628 13.2578 30.3961 14.65 30.3961 16.3532C30.3961 22.3481 26.5761 23.6675 22.94 24.0512C23.5119 24.5197 24.0431 25.4765 24.0431 26.9388C24.0431 29.0271 24.0226 30.7052 24.0226 31.212C24.0226 31.6209 24.3086 32.1093 25.1461 31.9531" stroke="black" stroke-width="1.2"/>
</svg>
