<svg width="19" height="20" viewBox="0 0 19 20" fill="none" xmlns="http://www.w3.org/2000/svg">
<path d="M6.1419 18.9798C6.75473 19.09 6.97943 18.7277 6.97943 18.417C6.97943 18.1391 6.96921 17.4026 6.96411 16.427C3.55473 17.1327 2.83567 14.8568 2.83567 14.8568C2.278 13.506 1.47214 13.1447 1.47214 13.1447C0.361895 12.4192 1.55794 12.434 1.55794 12.434C2.7887 12.5154 3.43523 13.64 3.43523 13.64C4.52811 15.4295 6.30429 14.9123 7.00496 14.6136C7.11528 13.8563 7.43087 13.3412 7.78121 13.0485C5.05922 12.7556 2.19834 11.7492 2.19834 7.26496C2.19834 5.98758 2.67329 4.94344 3.45975 4.12461C3.32185 3.82883 2.9082 2.63879 3.56699 1.02693C3.56699 1.02693 4.59348 0.713288 6.93755 2.22689C7.91808 1.96685 8.95989 1.83782 10.0017 1.83187C11.0435 1.83782 12.0853 1.96685 13.0658 2.22689C15.3946 0.713288 16.4211 1.02693 16.4211 1.02693C17.0799 2.63879 16.6663 3.82883 16.5437 4.12461C17.325 4.94344 17.8 5.98758 17.8 7.26496C17.8 11.7611 14.9349 12.7506 12.2078 13.0385C12.6369 13.3898 13.0352 14.1075 13.0352 15.2042C13.0352 16.7704 13.02 18.0289 13.02 18.409C13.02 18.7157 13.2344 19.082 13.8625 18.9648" stroke="black" stroke-width="1.35"/>
</svg>
