<svg width="40" height="40" viewBox="0 0 40 40" fill="none" xmlns="http://www.w3.org/2000/svg">
<path d="M14.9016 29.3248C14.9016 29.6976 14.5968 29.9998 14.2209 29.9998H11.3233C10.9473 29.9998 10.6426 29.6976 10.6426 29.3248V17.2802C10.6426 16.9074 10.9473 16.6052 11.3233 16.6052H14.2209C14.5968 16.6052 14.9016 16.9074 14.9016 17.2802V29.3248Z" fill="black"/>
<path d="M12.7313 15.4129C11.2229 15.4129 10 14.2011 10 12.7064C10 11.2117 11.2229 10 12.7313 10C14.2397 10 15.4626 11.2117 15.4626 12.7064C15.4626 14.2011 14.2398 15.4129 12.7313 15.4129Z" fill="black"/>
<path d="M30.0047 29.3801C30.0047 29.7224 29.7261 29.9999 29.3825 29.9999H26.2912C25.9476 29.9999 25.669 29.7224 25.669 29.3801V23.7383C25.669 22.8966 25.9169 20.0502 23.4608 20.0502C21.5557 20.0502 21.1692 21.9985 21.0916 22.8728V29.3801C21.0916 29.7224 20.8131 29.9999 20.4694 29.9999H17.4797C17.136 29.9999 16.8574 29.7224 16.8574 29.3801V17.2435C16.8574 16.9012 17.136 16.6237 17.4797 16.6237H20.4694C20.813 16.6237 21.0916 16.9012 21.0916 17.2435V18.2928C21.7981 17.2369 22.8479 16.4219 25.0832 16.4219C30.033 16.4219 30.0047 21.028 30.0047 23.5588V29.3801V29.3801Z" fill="black"/>
</svg>
