<svg width="19" height="19" viewBox="0 0 19 19" fill="none" xmlns="http://www.w3.org/2000/svg">
<path fill-rule="evenodd" clip-rule="evenodd" d="M2.56745 5.08815C1.14951 5.08815 0 3.94911 0 2.54408C0 1.13903 1.14951 0 2.56745 0C3.98541 0 5.13491 1.13903 5.13491 2.54408C5.13491 3.94911 3.98547 5.08815 2.56745 5.08815ZM4.60584 18.1655C4.60584 18.5159 4.31939 18.7999 3.96598 18.7999H1.24222C0.888821 18.7999 0.602353 18.5159 0.602353 18.1655V6.84342C0.602353 6.49299 0.888821 6.20893 1.24222 6.20893H3.96598C4.31939 6.20893 4.60584 6.49299 4.60584 6.84342V18.1655ZM18.216 18.7999C18.539 18.7999 18.8008 18.539 18.8008 18.2173V12.7452V12.7048C18.801 10.3175 18.8013 6.03642 14.1746 6.03642C12.0734 6.03642 11.0866 6.80255 10.4225 7.79515V6.80873C10.4225 6.487 10.1606 6.22614 9.8376 6.22614H7.02719C6.70418 6.22614 6.44229 6.487 6.44229 6.80873V18.2173C6.44229 18.539 6.70418 18.7999 7.02719 18.7999H9.8376C10.1607 18.7999 10.4225 18.539 10.4225 18.2173V12.1004C10.4954 11.2785 10.8587 9.44706 12.6496 9.44706C14.7882 9.44706 14.7458 11.743 14.7279 12.7102C14.7265 12.7871 14.7253 12.8557 14.7253 12.914V18.2173C14.7253 18.539 14.9872 18.7999 15.3102 18.7999H18.216Z" fill="black"/>
</svg>
