<svg width="22" height="21" viewBox="0 0 22 21" fill="none" xmlns="http://www.w3.org/2000/svg">
<path d="M5.64775 20.2913C5.64775 20.6827 5.32777 21 4.93301 21H1.89052C1.49577 21 1.17578 20.6827 1.17578 20.2913V7.64435C1.17578 7.25291 1.49577 6.93561 1.89052 6.93561H4.93301C5.32777 6.93561 5.64775 7.25291 5.64775 7.64435V20.2913Z" fill="black"/>
<path d="M3.36789 5.68355C1.78402 5.68355 0.5 4.41123 0.5 2.84178C0.5 1.27232 1.78402 0 3.36789 0C4.95177 0 6.23579 1.27232 6.23579 2.84178C6.23579 4.41123 4.95184 5.68355 3.36789 5.68355Z" fill="black"/>
<path d="M21.502 20.3491C21.502 20.7085 21.2095 20.9999 20.8487 20.9999H17.6029C17.2421 20.9999 16.9495 20.7085 16.9495 20.3491V14.4252C16.9495 13.5414 17.2098 10.5526 14.6309 10.5526C12.6305 10.5526 12.2247 12.5984 12.1432 13.5164V20.3491C12.1432 20.7085 11.8508 20.9999 11.4899 20.9999H8.35062C7.98981 20.9999 7.69727 20.7085 7.69727 20.3491V7.60554C7.69727 7.24617 7.98981 6.95478 8.35062 6.95478H11.4899C11.8507 6.95478 12.1432 7.24617 12.1432 7.60554V8.70739C12.885 7.59864 13.9873 6.74286 16.3344 6.74286C21.5318 6.74286 21.502 11.5793 21.502 14.2367V20.3491V20.3491Z" fill="black"/>
</svg>
