<svg width="17" height="17" viewBox="0 0 17 17" fill="none" xmlns="http://www.w3.org/2000/svg">
<path fill-rule="evenodd" clip-rule="evenodd" d="M2.32164 4.60101C1.03946 4.60101 0 3.57102 0 2.30051C0 1.02998 1.03946 0 2.32164 0C3.60385 0 4.64329 1.02998 4.64329 2.30051C4.64329 3.57102 3.6039 4.60101 2.32164 4.60101ZM4.16488 16.4263C4.16488 16.7432 3.90585 17 3.58628 17H1.12329C0.803725 17 0.544684 16.7432 0.544684 16.4263V6.18823C0.544684 5.87135 0.803725 5.61449 1.12329 5.61449H3.58628C3.90585 5.61449 4.16488 5.87135 4.16488 6.18823V16.4263ZM16.472 17C16.7641 17 17.0008 16.7641 17.0008 16.4732V11.525V11.4884C17.001 9.3297 17.0013 5.45849 12.8175 5.45849C10.9175 5.45849 10.0252 6.15127 9.42465 7.04884V6.15686C9.42465 5.86594 9.18783 5.63005 8.89575 5.63005H6.35441C6.06232 5.63005 5.82551 5.86594 5.82551 6.15686V16.4732C5.82551 16.7641 6.06232 17 6.35441 17H8.89575C9.18792 17 9.42465 16.7641 9.42465 16.4732V10.9419C9.49057 10.1987 9.81909 8.5426 11.4385 8.5426C13.3724 8.5426 13.334 10.6187 13.3179 11.4933C13.3166 11.5629 13.3155 11.6249 13.3155 11.6776V16.4732C13.3155 16.7641 13.5523 17 13.8444 17H16.472Z" fill="black"/>
</svg>
