<svg width="30" height="30" viewBox="0 0 30 30" fill="none" xmlns="http://www.w3.org/2000/svg">
<path d="M11.1786 21.9935C11.1786 22.2731 10.9501 22.4998 10.6681 22.4998H8.4949C8.21293 22.4998 7.98438 22.2731 7.98438 21.9935V12.9601C7.98438 12.6805 8.21293 12.4539 8.4949 12.4539H10.6681C10.9501 12.4539 11.1786 12.6805 11.1786 12.9601V21.9935Z" fill="#6D72DF"/>
<path d="M9.54848 11.5596C8.41715 11.5596 7.5 10.6509 7.5 9.52982C7.5 8.40879 8.41715 7.5 9.54848 7.5C10.6798 7.5 11.597 8.40879 11.597 9.52982C11.597 10.6509 10.6799 11.5596 9.54848 11.5596Z" fill="#6D72DF"/>
<path d="M22.5011 22.0351C22.5011 22.2918 22.2921 22.4999 22.0344 22.4999H19.716C19.4583 22.4999 19.2493 22.2918 19.2493 22.0351V17.8037C19.2493 17.1725 19.4352 15.0376 17.5931 15.0376C16.1643 15.0376 15.8745 16.4989 15.8163 17.1546V22.0351C15.8163 22.2918 15.6074 22.4999 15.3496 22.4999H13.1073C12.8496 22.4999 12.6406 22.2918 12.6406 22.0351V12.9326C12.6406 12.6759 12.8496 12.4678 13.1073 12.4678H15.3496C15.6073 12.4678 15.8163 12.6759 15.8163 12.9326V13.7196C16.3461 12.9277 17.1335 12.3164 18.8099 12.3164C22.5223 12.3164 22.5011 15.771 22.5011 17.6691V22.0351V22.0351Z" fill="#6D72DF"/>
</svg>
