<svg width="58" height="56" viewBox="0 0 58 56" fill="none" xmlns="http://www.w3.org/2000/svg">
<path d="M14.0166 37.5004V18.932H21.1866C23.4471 18.932 25.1555 19.4979 26.3116 20.6297C27.4851 21.7615 28.0718 23.3177 28.0718 25.2983C28.0718 27.279 27.4851 28.8352 26.3116 29.967C25.1555 31.0987 23.4471 31.6646 21.1866 31.6646H18.2616V37.5004H14.0166ZM18.2616 27.7653H21.3419C22.0839 27.7653 22.6706 27.5442 23.102 27.1021C23.5334 26.66 23.7491 26.0587 23.7491 25.2983C23.7491 24.5556 23.5334 23.9632 23.102 23.5211C22.6706 23.079 22.0839 22.8579 21.3419 22.8579H18.2616V27.7653Z" fill="white"/>
<path d="M36.8478 37.7657C34.9668 37.7657 33.362 37.3413 32.0333 36.4924C30.7218 35.6436 29.8935 34.3969 29.5484 32.7522L33.4052 31.5585C33.6122 32.3013 34.0177 32.8672 34.6217 33.2562C35.2429 33.6276 35.9246 33.8133 36.6666 33.8133C37.3913 33.8133 37.9867 33.6806 38.4526 33.4154C38.9185 33.1324 39.1515 32.6992 39.1515 32.1156C39.1515 31.5851 38.9444 31.196 38.5302 30.9484C38.1161 30.6832 37.4517 30.4444 36.5372 30.2322C34.5182 29.7194 33.0859 29.2242 32.2404 28.7467C30.463 27.7387 29.5743 26.271 29.5743 24.3434C29.5743 22.5926 30.1869 21.2133 31.4121 20.2053C32.6373 19.1796 34.2421 18.6667 36.2265 18.6667C37.9176 18.6667 39.3758 19.0912 40.601 19.94C41.8434 20.7712 42.6286 22.0179 42.9565 23.6802L39.0997 24.8739C38.6855 23.4061 37.7278 22.6545 36.2265 22.6192C35.6571 22.6192 35.1739 22.7518 34.777 23.0171C34.3801 23.2823 34.1817 23.6891 34.1817 24.2373C34.1817 24.7501 34.3715 25.1569 34.7511 25.4575C35.148 25.7404 35.7434 25.9792 36.5372 26.1737C38.5216 26.5981 39.9798 27.0756 40.9116 27.6061C42.8098 28.6495 43.7589 30.1261 43.7589 32.036C43.7589 33.7691 43.1376 35.1573 41.8952 36.2006C40.6528 37.244 38.9703 37.7657 36.8478 37.7657Z" fill="white"/>
</svg>
