<svg width="30" height="20" viewBox="0 0 30 20" fill="none" xmlns="http://www.w3.org/2000/svg">
<path d="M0.0166016 19.5005V0.932129H7.1866C9.4471 0.932129 11.1555 1.49803 12.3116 2.62983C13.4851 3.76163 14.0718 5.31783 14.0718 7.29843C14.0718 9.27913 13.4851 10.8353 12.3116 11.9671C11.1555 13.0988 9.4471 13.6647 7.1866 13.6647H4.2616V19.5005H0.0166016ZM4.2616 9.76543H7.3419C8.0839 9.76543 8.6706 9.54433 9.102 9.10223C9.5334 8.66013 9.7491 8.05883 9.7491 7.29843C9.7491 6.55573 9.5334 5.96333 9.102 5.52123C8.6706 5.07913 8.0839 4.85803 7.3419 4.85803H4.2616V9.76543Z" fill="white"/>
<path d="M22.8477 19.7655C20.9667 19.7655 19.3619 19.3411 18.0332 18.4922C16.7217 17.6434 15.8934 16.3967 15.5483 14.752L19.4051 13.5583C19.6121 14.3011 20.0176 14.867 20.6216 15.256C21.2428 15.6274 21.9245 15.8131 22.6665 15.8131C23.3912 15.8131 23.9866 15.6804 24.4525 15.4152C24.9184 15.1322 25.1514 14.699 25.1514 14.1154C25.1514 13.5849 24.9443 13.1958 24.5301 12.9482C24.116 12.683 23.4516 12.4442 22.5371 12.232C20.5181 11.7192 19.0858 11.224 18.2403 10.7465C16.4629 9.7385 15.5742 8.2708 15.5742 6.3432C15.5742 4.5924 16.1868 3.2131 17.412 2.2051C18.6372 1.1794 20.242 0.666504 22.2264 0.666504C23.9175 0.666504 25.3757 1.091 26.6009 1.9398C27.8433 2.771 28.6285 4.0177 28.9564 5.68L25.0996 6.8737C24.6854 5.4059 23.7277 4.6543 22.2264 4.619C21.657 4.619 21.1738 4.7516 20.7769 5.0169C20.38 5.2821 20.1816 5.6889 20.1816 6.2371C20.1816 6.7499 20.3714 7.1567 20.751 7.4573C21.1479 7.7402 21.7433 7.979 22.5371 8.1735C24.5215 8.5979 25.9797 9.0754 26.9115 9.6059C28.8097 10.6493 29.7588 12.1259 29.7588 14.0358C29.7588 15.7689 29.1375 17.1571 27.8951 18.2004C26.6527 19.2438 24.9702 19.7655 22.8477 19.7655Z" fill="white"/>
</svg>
