<svg width="19" height="20" viewBox="0 0 19 20" fill="none" xmlns="http://www.w3.org/2000/svg">
<path fill-rule="evenodd" clip-rule="evenodd" d="M15.9528 2.8909C12.3014 -0.963405 6.39077 -0.964022 2.73882 2.8909C-0.912665 6.7452 -0.913213 12.9841 2.73882 16.839C6.39019 20.6933 12.3008 20.6939 15.9528 16.839C19.6043 12.9847 19.6048 6.74578 15.9528 2.8909ZM15.5606 15.433C15.1241 15.0209 14.6571 14.6562 14.1649 14.342C14.4902 13.1557 14.683 11.8503 14.7285 10.4934H17.4756C17.3514 12.3224 16.6856 14.0382 15.5606 15.433ZM3.96093 10.4934H1.21387C1.33811 12.3224 2.00385 14.0382 3.12881 15.433C3.56537 15.0209 4.03235 14.6562 4.52458 14.342C4.19924 13.1557 4.00649 11.8503 3.96093 10.4934ZM3.12885 4.2971C3.56541 4.70917 4.03239 5.07383 4.52462 5.3881C4.19927 6.57436 4.00653 7.87976 3.96097 9.23671H1.21387C1.33811 7.4077 2.00385 5.69194 3.12885 4.2971ZM5.97639 4.77546C6.84444 5.19195 7.78077 5.44442 8.75187 5.51773V1.34951C7.41191 1.75738 6.48123 3.40322 5.97639 4.77546ZM8.75232 6.77708V9.23643H5.15475C5.19597 8.08856 5.35005 6.98631 5.6063 5.97778C6.59276 6.43297 7.65366 6.70481 8.75232 6.77708ZM8.75232 12.9527V10.4934H5.15475C5.19597 11.6412 5.35005 12.7435 5.6063 13.752C6.59276 13.2968 7.65366 13.025 8.75232 12.9527ZM8.75187 14.2121V18.3803C7.41199 17.9724 6.48131 16.3268 5.97639 14.9544C6.84444 14.5379 7.78077 14.2854 8.75187 14.2121ZM12.7151 14.9544C11.847 14.5379 10.9107 14.2854 9.93958 14.2121V18.3803C11.2795 17.9724 12.2102 16.3267 12.7151 14.9544ZM9.93958 12.9527V10.4934H13.5372C13.4959 11.6412 13.3419 12.7435 13.0856 13.752C12.0991 13.2968 11.0382 13.025 9.93958 12.9527ZM9.93958 6.77708V9.23643H13.5372C13.4959 8.08856 13.3419 6.98631 13.0856 5.97778C12.0991 6.43297 11.0382 6.70481 9.93958 6.77708ZM9.93958 5.51769V1.34951C11.2795 1.75738 12.2102 3.40322 12.7151 4.77546C11.847 5.19191 10.9107 5.44438 9.93958 5.51769ZM14.7271 3.39976C14.0897 2.80703 13.3786 2.32932 12.6164 1.97701C13.0931 2.63719 13.4723 3.39125 13.7692 4.16718C14.1035 3.9382 14.4237 3.68215 14.7271 3.39976ZM4.92294 4.16718C4.58863 3.9382 4.2685 3.68215 3.96505 3.39976C4.60249 2.80703 5.31358 2.32932 6.07577 1.97701C5.59909 2.63727 5.21983 3.39133 4.92294 4.16718ZM6.07577 17.7528C5.59912 17.0926 5.2198 16.3385 4.92294 15.5627C4.58863 15.7916 4.26847 16.0477 3.96505 16.3301C4.60249 16.9228 5.31358 17.4005 6.07577 17.7528ZM13.7692 15.5627C14.1035 15.7916 14.4237 16.0477 14.7271 16.33C14.0897 16.9228 13.3786 17.4005 12.6164 17.7528C13.0931 17.0927 13.4723 16.3386 13.7692 15.5627ZM14.1649 5.3881C14.4902 6.57433 14.683 7.87976 14.7285 9.23671H17.4756C17.3513 7.40766 16.6856 5.6919 15.5606 4.2971C15.124 4.70917 14.6571 5.07383 14.1649 5.3881Z" fill="black"/>
</svg>
