<svg width="17" height="18" viewBox="0 0 17 18" fill="none" xmlns="http://www.w3.org/2000/svg">
<path fill-rule="evenodd" clip-rule="evenodd" d="M14.2935 2.59025C11.0219 -0.863142 5.72602 -0.863695 2.45393 2.59025C-0.817732 6.04364 -0.818224 11.6336 2.45393 15.0875C5.7255 18.5409 11.0214 18.5415 14.2935 15.0875C17.5651 11.6341 17.5656 6.04416 14.2935 2.59025ZM13.9421 13.8277C13.551 13.4585 13.1325 13.1317 12.6915 12.8502C12.9829 11.7874 13.1557 10.6177 13.1965 9.40196H15.6578C15.5465 11.0408 14.95 12.578 13.9421 13.8277ZM3.54893 9.40196H1.0876C1.19892 11.0408 1.79541 12.578 2.80336 13.8277C3.19451 13.4585 3.61292 13.1317 4.05394 12.8502C3.76244 11.7874 3.58975 10.6177 3.54893 9.40196ZM2.80339 3.85018C3.19455 4.21939 3.61295 4.54611 4.05399 4.8277C3.76248 5.89057 3.58978 7.06018 3.54896 8.27599H1.0876C1.19892 6.63722 1.79541 5.09993 2.80339 3.85018ZM5.35475 4.27878C6.1325 4.65195 6.97144 4.87816 7.84153 4.94384V1.20919C6.64095 1.57463 5.80708 3.04928 5.35475 4.27878ZM7.84193 6.0722V8.27574H4.61856C4.6555 7.24726 4.79355 6.25967 5.02315 5.35604C5.907 5.76388 6.85755 6.00745 7.84193 6.0722ZM7.84193 11.6055V9.40196H4.61856C4.6555 10.4304 4.79355 11.418 5.02315 12.3216C5.907 11.9137 6.85755 11.6703 7.84193 11.6055ZM7.84153 12.7338V16.4685C6.64102 16.103 5.80714 14.6286 5.35475 13.399C6.1325 13.0257 6.97144 12.7995 7.84153 12.7338ZM11.3926 13.399C10.6148 13.0257 9.7758 12.7995 8.9057 12.7338V16.4685C10.1062 16.103 10.9402 14.6285 11.3926 13.399ZM8.9057 11.6055V9.40196H12.1291C12.0921 10.4304 11.9541 11.418 11.7244 12.3216C10.8406 11.9137 9.89004 11.6703 8.9057 11.6055ZM8.9057 6.0722V8.27574H12.1291C12.0921 7.24726 11.9541 6.25967 11.7244 5.35604C10.8406 5.76388 9.89004 6.00745 8.9057 6.0722ZM8.9057 4.94381V1.20919C10.1062 1.57463 10.9402 3.04928 11.3926 4.27878C10.6148 4.65192 9.7758 4.87813 8.9057 4.94381ZM13.1952 3.04618C12.6241 2.5151 11.987 2.08708 11.304 1.77142C11.7312 2.36293 12.0709 3.03855 12.337 3.73377C12.6365 3.52862 12.9234 3.2992 13.1952 3.04618ZM4.41086 3.73377C4.11133 3.52862 3.82451 3.2992 3.55262 3.04618C4.12375 2.5151 4.76087 2.08708 5.44379 1.77142C5.01669 2.363 4.67688 3.03863 4.41086 3.73377ZM5.44379 15.9063C5.01672 15.3147 4.67685 14.6391 4.41086 13.944C4.11133 14.1491 3.82447 14.3786 3.55262 14.6316C4.12375 15.1626 4.76087 15.5906 5.44379 15.9063ZM12.337 13.944C12.6365 14.1491 12.9234 14.3786 13.1952 14.6315C12.6241 15.1626 11.987 15.5906 11.304 15.9063C11.7312 15.3148 12.0709 14.6392 12.337 13.944ZM12.6915 4.8277C12.9829 5.89055 13.1557 7.06018 13.1965 8.27599H15.6578C15.5464 6.63719 14.95 5.0999 13.9421 3.85018C13.5508 4.21939 13.1325 4.54611 12.6915 4.8277Z" fill="black"/>
</svg>
