<svg width="16" height="17" viewBox="0 0 16 17" fill="none" xmlns="http://www.w3.org/2000/svg">
<path fill-rule="evenodd" clip-rule="evenodd" d="M13.4849 2.44373C10.3984 -0.814314 5.40211 -0.814836 2.31512 2.44373C-0.771475 5.70176 -0.771939 10.9755 2.31512 14.234C5.40162 17.4921 10.3979 17.4926 13.4849 14.234C16.5715 10.976 16.5719 5.70225 13.4849 2.44373ZM13.1534 13.0455C12.7844 12.6972 12.3896 12.3889 11.9736 12.1233C12.2485 11.1206 12.4115 10.0171 12.45 8.87011H14.7721C14.6671 10.4162 14.1043 11.8665 13.1534 13.0455ZM3.34817 8.87011H1.02608C1.1311 10.4162 1.69385 11.8665 2.64478 13.0455C3.0138 12.6972 3.40854 12.3889 3.82462 12.1233C3.54961 11.1206 3.38668 10.0171 3.34817 8.87011ZM2.64481 3.63238C3.01384 3.98071 3.40857 4.28895 3.82466 4.55461C3.54964 5.55735 3.38671 6.6608 3.3482 7.80783H1.02608C1.1311 6.26177 1.69385 4.81144 2.64481 3.63238ZM5.05184 4.03674C5.7856 4.3888 6.57708 4.60221 7.39795 4.66418V1.14079C6.26528 1.48556 5.47858 2.87679 5.05184 4.03674ZM7.39833 5.72871V7.8076H4.3573C4.39215 6.8373 4.52239 5.90557 4.739 5.05306C5.57285 5.43783 6.46963 5.66762 7.39833 5.72871ZM7.39833 10.949V8.87011H4.3573C4.39215 9.84034 4.52239 10.7721 4.739 11.6246C5.57285 11.2398 6.46963 11.0101 7.39833 10.949ZM7.39795 12.0135V15.5369C6.26535 15.1921 5.47864 13.8011 5.05184 12.641C5.7856 12.2889 6.57708 12.0755 7.39795 12.0135ZM10.7481 12.641C10.0143 12.2889 9.2228 12.0755 8.40192 12.0135V15.5369C9.53455 15.1921 10.3213 13.801 10.7481 12.641ZM8.40192 10.949V8.87011H11.443C11.4081 9.84034 11.2779 10.7721 11.0612 11.6246C10.2274 11.2398 9.33058 11.0101 8.40192 10.949ZM8.40192 5.72871V7.8076H11.443C11.4081 6.8373 11.2779 5.90557 11.0612 5.05306C10.2274 5.43783 9.33058 5.66762 8.40192 5.72871ZM8.40192 4.66415V1.14079C9.53455 1.48556 10.3213 2.87679 10.7481 4.03674C10.0143 4.38877 9.2228 4.60218 8.40192 4.66415ZM12.4488 2.87386C11.91 2.37283 11.3089 1.96902 10.6646 1.67122C11.0676 2.22926 11.3881 2.86667 11.6391 3.52256C11.9217 3.32901 12.1923 3.11257 12.4488 2.87386ZM4.16135 3.52256C3.87876 3.32901 3.60816 3.11257 3.35165 2.87386C3.89048 2.37283 4.49156 1.96902 5.13584 1.67122C4.7329 2.22933 4.41232 2.86674 4.16135 3.52256ZM5.13584 15.0065C4.73293 14.4484 4.41229 13.811 4.16135 13.1552C3.87876 13.3487 3.60813 13.5652 3.35165 13.8039C3.89048 14.3049 4.49156 14.7087 5.13584 15.0065ZM11.6391 13.1552C11.9217 13.3487 12.1923 13.5652 12.4488 13.8038C11.91 14.3049 11.3089 14.7087 10.6646 15.0065C11.0676 14.4485 11.3881 13.8111 11.6391 13.1552ZM11.9736 4.55461C12.2485 5.55733 12.4115 6.6608 12.45 7.80783H14.7721C14.667 6.26174 14.1043 4.81141 13.1534 3.63238C12.7843 3.98071 12.3896 4.28895 11.9736 4.55461Z" fill="black"/>
</svg>
