<svg width="865" height="865" fill="none" xmlns="http://www.w3.org/2000/svg">
  <path fill-rule="evenodd" clip-rule="evenodd" d="M432.016 864.765c238.025 0 432.016-194.29 432.016-432.382C864.032 194.29 670.041 0 432.016 0 194.125 0 0 194.29 0 432.383c0 238.226 194.125 432.382 432.016 432.382Z" fill="#1E3853" fill-opacity=".2"/>
  <path fill-rule="evenodd" clip-rule="evenodd" d="M432.017 806.586c205.939 0 373.885-168.089 373.885-374.203 0-206.114-167.946-374.2033-373.885-374.2033-205.94 0-373.8861 168.0893-373.8861 374.2033S226.077 806.586 432.017 806.586Z" fill="#223D5A" fill-opacity=".2"/>
  <path fill-rule="evenodd" clip-rule="evenodd" d="M432.016 716.159c156.133 0 283.536-127.511 283.536-283.776 0-156.265-127.403-283.777-283.536-283.777-156.132 0-283.536 127.512-283.536 283.777s127.404 283.776 283.536 283.776Z" fill="#274768" fill-opacity=".2"/>
  <path fill-rule="evenodd" clip-rule="evenodd" d="M432.014 626.538c106.863 0 193.991-87.202 193.991-194.155 0-106.954-87.128-194.156-193.991-194.156-106.862 0-193.991 87.202-193.991 194.156 0 106.953 87.129 194.155 193.991 194.155Z" fill="#304F71" fill-opacity=".2"/>
  <path fill-rule="evenodd" clip-rule="evenodd" d="M432.014 574.002c77.999 0 141.5-63.688 141.5-141.619s-63.501-141.62-141.5-141.62-141.499 63.689-141.499 141.62c0 77.931 63.5 141.619 141.499 141.619Z" fill="#3A597B" fill-opacity=".2"/>
  <path fill-rule="evenodd" clip-rule="evenodd" d="M432.015 543.77c61.218 0 111.293-49.983 111.293-111.387 0-61.405-49.941-111.388-111.293-111.388-61.218 0-111.293 49.983-111.293 111.388 0 61.404 50.075 111.387 111.293 111.387Z" fill="#4D6A8A" fill-opacity=".2"/>
  <path fill-rule="evenodd" clip-rule="evenodd" d="M432.011 519.316c47.793 0 86.86-38.965 86.86-86.933s-38.933-86.933-86.86-86.933c-47.793 0-86.86 39.1-86.86 86.933 0 47.834 39.067 86.933 86.86 86.933Z" fill="#5E7A9A" fill-opacity=".2"/>
  <path fill-rule="evenodd" clip-rule="evenodd" d="M432.011 507.627c41.349 0 75.18-33.726 75.18-75.244 0-41.384-33.697-75.244-75.18-75.244-41.349 0-75.18 33.86-75.18 75.244s33.831 75.244 75.18 75.244Z" fill="#fff"/>
  <path d="M606.189 491.383v-25.6h-68v-27.6l68.2-86.8h32.6v86.6h17.2v27.8h-17.2v25.6h-32.8Zm-34-53.4h34v-42.4l-34 42.4ZM274.83 491.383v-25.6h-68v-27.6l68.2-86.8h32.6v86.6h17.2v27.8h-17.2v25.6h-32.8Zm-34-53.4h34v-42.4l-34 42.4Z" fill="#fff"/>
</svg>