<svg width="1852" height="324" viewBox="0 0 1852 324" fill="none" xmlns="http://www.w3.org/2000/svg">
<path d="M-919 219.809L-888.044 235.897C-857.089 251.382 -795.178 284.459 -733.267 267.92C-671.356 251.382 -609.444 148.094 -547.533 147.643C-485.622 148.094 -423.711 211.24 -361.8 187.635C-299.889 163.128 -237.978 84.9479 -176.067 68.4097C-114.156 51.8715 -52.2445 99.9826 9.66664 147.643C71.5778 196.205 133.489 211.24 195.4 203.722C257.311 196.205 319.222 163.128 381.133 147.643C443.044 131.556 504.956 131.556 566.867 139.524C628.778 148.094 690.689 163.128 752.6 147.643C814.511 131.556 876.422 83.4444 938.333 83.4444C1000.24 83.4444 1062.16 131.556 1124.07 187.635C1185.98 244.316 1247.89 307.462 1309.8 316.032C1371.71 324 1433.62 275.889 1495.53 267.92C1557.44 259.351 1619.36 292.427 1681.27 307.913C1743.18 324 1805.09 324 1836.04 324H1867V-109H1836.04C1805.09 -109 1743.18 -109 1681.27 -109C1619.36 -109 1557.44 -109 1495.53 -109C1433.62 -109 1371.71 -109 1309.8 -109C1247.89 -109 1185.98 -109 1124.07 -109C1062.16 -109 1000.24 -109 938.333 -109C876.422 -109 814.511 -109 752.6 -109C690.689 -109 628.778 -109 566.867 -109C504.956 -109 443.044 -109 381.133 -109C319.222 -109 257.311 -109 195.4 -109C133.489 -109 71.5778 -109 9.66664 -109C-52.2445 -109 -114.156 -109 -176.067 -109C-237.978 -109 -299.889 -109 -361.8 -109C-423.711 -109 -485.622 -109 -547.533 -109C-609.444 -109 -671.356 -109 -733.267 -109C-795.178 -109 -857.089 -109 -888.044 -109H-919V219.809Z" fill="#669999" fill-opacity="0.2"/>
</svg>
