<svg width="902" height="868" viewBox="0 0 902 868" fill="none" xmlns="http://www.w3.org/2000/svg">
<path fill-rule="evenodd" clip-rule="evenodd" d="M451.016 867.765C699.226 867.765 901.517 665.162 901.517 416.883C901.517 168.603 699.226 -34 451.016 -34C202.947 -34 0.516113 168.603 0.516113 416.883C0.516113 665.302 202.947 867.765 451.016 867.765Z" fill="#1E3853" fill-opacity="0.2"/>
<path fill-rule="evenodd" clip-rule="evenodd" d="M451.017 807.428C665.768 807.428 840.9 632.147 840.9 417.214C840.9 202.281 665.768 27 451.017 27C236.267 27 61.1343 202.281 61.1343 417.214C61.1343 632.147 236.267 807.428 451.017 807.428Z" fill="#223D5A" fill-opacity="0.2"/>
<path fill-rule="evenodd" clip-rule="evenodd" d="M451.017 712.836C613.83 712.836 746.684 579.869 746.684 416.918C746.684 253.967 613.83 121 451.017 121C288.204 121 155.35 253.967 155.35 416.918C155.35 579.869 288.204 712.836 451.017 712.836Z" fill="#274768" fill-opacity="0.2"/>
<path fill-rule="evenodd" clip-rule="evenodd" d="M451.015 618.926C562.45 618.926 653.306 527.992 653.306 416.463C653.306 304.933 562.45 214 451.015 214C339.58 214 248.724 304.933 248.724 416.463C248.724 527.992 339.58 618.926 451.015 618.926Z" fill="#304F71" fill-opacity="0.2"/>
<path fill-rule="evenodd" clip-rule="evenodd" d="M451.015 564.358C532.352 564.358 598.569 497.944 598.569 416.679C598.569 335.413 532.352 269 451.015 269C369.679 269 303.461 335.413 303.461 416.679C303.461 497.944 369.679 564.358 451.015 564.358Z" fill="#3A597B" fill-opacity="0.2"/>
<path fill-rule="evenodd" clip-rule="evenodd" d="M451.016 533.307C514.853 533.307 567.071 481.185 567.071 417.153C567.071 353.122 514.993 301 451.016 301C387.179 301 334.961 353.122 334.961 417.153C334.961 481.185 387.179 533.307 451.016 533.307Z" fill="#4D6A8A" fill-opacity="0.2"/>
<path fill-rule="evenodd" clip-rule="evenodd" d="M451.012 507.306C500.849 507.306 541.588 466.673 541.588 416.653C541.588 366.633 500.989 326 451.012 326C401.174 326 360.436 366.773 360.436 416.653C360.436 466.533 401.174 507.306 451.012 507.306Z" fill="#5E7A9A" fill-opacity="0.2"/>
<path fill-rule="evenodd" clip-rule="evenodd" d="M451.012 494.926C494.13 494.926 529.408 459.758 529.408 416.463C529.408 373.308 494.27 338 451.012 338C407.894 338 372.615 373.308 372.615 416.463C372.615 459.618 407.894 494.926 451.012 494.926Z" fill="white"/>
<path d="M627.41 487V461.4H559.41V433.8L627.61 347H660.21V433.6H677.41V461.4H660.21V487H627.41ZM593.41 433.6H627.41V391.2L593.41 433.6Z" fill="white"/>
<path d="M292.62 487V461.4H224.62V433.8L292.82 347H325.42V433.6H342.62V461.4H325.42V487H292.62ZM258.62 433.6H292.62V391.2L258.62 433.6Z" fill="white"/>
</svg>
