<svg width="195" height="203" viewBox="0 0 195 203" fill="none" xmlns="http://www.w3.org/2000/svg">
<path d="M86.4874 63.0245C88.0377 64.0787 89.8566 63.969 90.55 62.7795C91.2434 61.59 90.5488 59.7711 88.9985 58.7169C87.4482 57.6627 85.6293 57.7724 84.9359 58.9619C84.2424 60.1514 84.9371 61.9703 86.4874 63.0245Z" fill="white"/>
<path d="M111.679 78.4618C113.229 79.516 115.048 79.4063 115.741 78.2168C116.435 77.0273 115.74 75.2084 114.19 74.1542C112.64 73.1 110.821 73.2097 110.127 74.3992C109.434 75.5887 110.128 77.4076 111.679 78.4618Z" fill="white"/>
<path d="M136.872 93.8995C138.422 94.9537 140.241 94.844 140.935 93.6545C141.628 92.465 140.934 90.6461 139.383 89.5919C137.833 88.5377 136.014 88.6474 135.321 89.8369C134.627 91.0264 135.322 92.8453 136.872 93.8995Z" fill="white"/>
<path d="M71.0518 88.2157C72.6021 89.2699 74.421 89.1602 75.1145 87.9707C75.8079 86.7812 75.1132 84.9623 73.5629 83.9081C72.0126 82.8539 70.1937 82.9636 69.5003 84.1531C68.8069 85.3426 69.5015 87.1615 71.0518 88.2157Z" fill="white"/>
<path d="M96.2413 103.653C97.7916 104.707 99.6105 104.597 100.304 103.408C100.997 102.218 100.303 100.4 98.7524 99.3453C97.2021 98.2911 95.3832 98.4008 94.6898 99.5903C93.9963 100.78 94.691 102.599 96.2413 103.653Z" fill="white"/>
<path d="M121.435 119.091C122.985 120.145 124.804 120.035 125.497 118.846C126.191 117.656 125.496 115.837 123.946 114.783C122.395 113.729 120.577 113.839 119.883 115.028C119.19 116.218 119.884 118.036 121.435 119.091Z" fill="white"/>
<path d="M55.6124 113.408C57.1627 114.463 58.9816 114.353 59.675 113.163C60.3684 111.974 59.6738 110.155 58.1235 109.101C56.5732 108.046 54.7543 108.156 54.0609 109.346C53.3674 110.535 54.0621 112.354 55.6124 113.408Z" fill="white"/>
<path d="M80.8038 128.845C82.3541 129.9 84.173 129.79 84.8664 128.6C85.5598 127.411 84.8652 125.592 83.3149 124.538C81.7646 123.484 79.9457 123.593 79.2523 124.783C78.5588 125.972 79.2535 127.791 80.8038 128.845Z" fill="white"/>
<path d="M105.997 144.283C107.547 145.338 109.366 145.228 110.06 144.038C110.753 142.849 110.059 141.03 108.508 139.976C106.958 138.921 105.139 139.031 104.446 140.221C103.752 141.41 104.447 143.229 105.997 144.283Z" fill="white"/>
</svg>
