<svg width="189" height="189" viewBox="0 0 189 189" fill="none" xmlns="http://www.w3.org/2000/svg">
<circle cx="94.5" cy="94.5" r="94.5" fill="#6D72DF"/>
<path opacity="0.5" d="M91.3178 128.179L61.2768 110.832C59.4398 109.732 59.6708 107.906 61.7938 106.674L90.8008 89.9323C93.0151 88.6948 95.6861 88.5846 97.9948 89.6353L128.025 106.982C129.873 108.082 129.642 109.897 127.508 111.129L98.5118 127.871C96.2973 129.105 93.6297 129.22 91.3178 128.179Z" fill="#173D7A"/>
<path d="M129.268 90.3505V90.3505V79.9885H106.025L97.9951 75.3575C95.6863 74.3067 93.0154 74.417 90.8011 75.6545L83.3101 79.9775H60.0451V90.6585C60.0346 91.4886 60.5189 92.2453 61.2771 92.5835L91.3181 109.93C93.6282 110.974 96.2958 110.864 98.5121 109.633L127.53 92.8585C128.546 92.4293 129.223 91.4524 129.268 90.3505Z" fill="#396CAA"/>
<path d="M94.6511 74.6204C93.3046 74.6397 91.9831 74.9871 90.8011 75.6324L83.3101 79.9554H60.0451V90.6584C60.0346 91.4885 60.5189 92.2452 61.2771 92.5834L91.3181 109.93C92.3375 110.451 93.4747 110.697 94.6181 110.645L94.6511 74.6204Z" fill="#396CAA"/>
<path d="M62.6292 79.9443H60.0002V90.6583C59.9897 91.4884 60.474 92.2452 61.2322 92.5833L62.6292 93.3973V79.9443Z" fill="#5793CE"/>
<path d="M91.7793 110.095C93.6414 110.772 95.6862 110.749 97.5323 110.029V97.9294H91.7793V110.095Z" fill="#5793CE"/>
<path d="M91.3178 99.2494L61.2768 81.9134C59.4398 80.8134 59.6708 78.9874 61.7938 77.7554L90.8008 61.0134C93.0151 59.7759 95.6861 59.6656 97.9948 60.7164L128.025 78.0524C129.873 79.1524 129.642 80.9784 127.508 82.2104L98.5118 98.9524C96.2975 100.19 93.6266 100.3 91.3178 99.2494Z" fill="#D4ECFF"/>
<path d="M127.529 80.1644L98.5331 96.9174C96.3168 98.1479 93.6493 98.258 91.3391 97.2144L61.2981 79.8674C60.9349 79.6703 60.6224 79.3917 60.3851 79.0534C60.0669 79.5409 59.985 80.1457 60.162 80.7003C60.3391 81.2549 60.7563 81.7004 61.2981 81.9134L91.3391 99.2494C93.6479 100.3 96.3188 100.19 98.5331 98.9524L127.529 82.2104C129.19 81.2534 129.729 79.9224 128.97 78.9104C128.598 79.4388 128.104 79.8691 127.529 80.1644Z" fill="white"/>
<path d="M118.213 93.0785C118.17 93.9325 117.72 94.7141 117.003 95.1795C116.332 95.5755 115.793 95.2565 115.793 94.4865C115.835 93.6325 116.286 92.8508 117.003 92.3855C117.63 92.0005 118.213 92.3085 118.213 93.0785Z" fill="#D4ECFF"/>
<path d="M122.117 90.8343C122.07 91.6868 121.621 92.4662 120.907 92.9353C120.236 93.3203 119.697 93.0013 119.697 92.2313C119.742 91.3778 120.191 90.5969 120.907 90.1303C121.578 89.7453 122.117 90.0533 122.117 90.8343Z" fill="#D4ECFF"/>
<path d="M126.023 88.5794C125.975 89.4319 125.526 90.2113 124.813 90.6804C124.142 91.0654 123.592 90.7464 123.592 89.9764C123.64 89.1214 124.094 88.3409 124.813 87.8754C125.484 87.4904 126.023 87.7984 126.023 88.5794Z" fill="#D4ECFF"/>
<path d="M93.0885 88.4584L79.0415 80.3404C78.1725 79.8454 78.2825 78.9764 79.2835 78.3934L92.8465 70.5614C93.8833 69.9859 95.1307 69.9329 96.2125 70.4184L110.271 78.5584C111.14 79.0534 111.03 79.9334 110.029 80.5054L96.4545 88.3374C95.4143 88.9058 94.1669 88.9506 93.0885 88.4584V88.4584Z" fill="#5793CE"/>
<path d="M94.4419 81.7045L92.4949 80.6045C92.3739 80.5385 92.3849 80.4175 92.4949 80.3405L94.3759 79.2405C94.5217 79.1695 94.692 79.1695 94.8379 79.2405L96.7849 80.3405C96.9059 80.4175 96.8839 80.5385 96.7849 80.6155L94.9039 81.7155C94.7575 81.7883 94.5846 81.7842 94.4419 81.7045V81.7045Z" fill="#D4ECFF"/>
<path d="M79.042 80.3843V80.3843L79.251 80.2523L92.814 72.4093C93.851 71.8322 95.1009 71.7832 96.18 72.2773L110.205 80.3623C110.997 79.7903 111.041 79.0203 110.205 78.5583L96.147 70.4403C95.0651 69.9549 93.8177 70.0079 92.781 70.5833L79.218 78.4153C78.283 79.0203 78.173 79.8893 79.042 80.3843Z" fill="#396CAA"/>
</svg>
