<svg width="284" height="284" viewBox="0 0 284 284" fill="none" xmlns="http://www.w3.org/2000/svg">
<circle cx="142" cy="142" r="142" fill="#D99B45"/>
<path opacity="0.5" d="M137.802 238.392L94.5642 213.425C92.9782 212.497 93.173 210.911 95.0093 209.854L140.844 183.329C142.744 182.265 145.037 182.168 147.02 183.07L190.267 208.036C191.853 208.964 191.658 210.55 189.822 211.607L143.95 238.141C142.055 239.19 139.776 239.283 137.802 238.392V238.392Z" fill="#173D7A"/>
<path d="M191.252 191.435L145.009 164.706C143.21 163.667 141.754 160.885 141.754 158.483V47.8483C141.754 45.4555 143.21 44.3519 145.009 45.3906L191.252 72.0917C193.051 73.1304 194.507 75.922 194.507 78.3148V188.968C194.507 191.37 193.051 192.464 191.252 191.435Z" fill="url(#paint0_linear_994:323)"/>
<path d="M191.251 72.0918L145.009 45.4C144.392 44.963 143.588 44.8921 142.904 45.2145V45.2145L90.1602 75.6717L92.6457 84.8813L140.78 221.967L193.366 191.639V191.639L193.459 191.584V191.584C194.236 190.958 194.642 189.979 194.535 188.987V78.315C194.507 75.9222 193.051 73.1306 191.251 72.0918Z" fill="#396CAA"/>
<path d="M191.251 72.0918L145.009 45.4C144.392 44.963 143.588 44.8921 142.904 45.2145V45.2145L90.1602 75.6717L92.6457 84.8813L105.89 122.573L108.375 124.01L193.598 74.7443C193.072 73.663 192.26 72.7458 191.251 72.0918V72.0918Z" fill="#D4ECFF"/>
<path d="M138.498 221.864L92.2553 195.163C90.2471 193.721 89.0399 191.413 89 188.94V78.2871C89 75.8943 90.4654 74.7906 92.2553 75.8293L138.498 102.568C140.297 103.606 141.753 106.389 141.753 108.781V219.425C141.753 221.8 140.297 222.903 138.498 221.864Z" fill="#5793CE"/>
<path d="M135.604 215.196L95.1676 191.862C93.4119 190.603 92.3559 188.587 92.3203 186.427V83.6569C92.3203 81.5609 93.6002 80.5963 95.1676 81.5052L135.604 104.849C137.359 106.108 138.412 108.125 138.442 110.284V213.044C138.433 215.14 137.162 216.105 135.604 215.196Z" fill="url(#paint1_linear_994:323)"/>
<path d="M135.604 215.196L95.1676 191.862C93.4119 190.603 92.3559 188.587 92.3203 186.427V83.6569C92.3203 81.5609 93.6002 80.5963 95.1676 81.5052L135.604 104.849C137.359 106.108 138.412 108.125 138.442 110.284V213.044C138.433 215.14 137.162 216.105 135.604 215.196Z" fill="url(#paint2_linear_994:323)"/>
<path d="M135.604 215.196L95.1676 191.862C93.4119 190.603 92.3559 188.587 92.3203 186.427V83.6569C92.3203 81.5609 93.6002 80.5963 95.1676 81.5052L135.604 104.849C137.359 106.108 138.412 108.125 138.442 110.284V213.044C138.433 215.14 137.162 216.105 135.604 215.196Z" fill="#173D7A"/>
<path d="M136.912 214.426L96.4845 191.083C94.7312 189.823 93.6785 187.807 93.6466 185.648V82.8779C93.6235 82.2794 93.7647 81.6861 94.0546 81.1621C93.0344 81.1621 92.3203 82.0896 92.3203 83.6569V186.427C92.3559 188.587 93.4119 190.603 95.1676 191.862L135.604 215.196C135.973 215.494 136.452 215.617 136.919 215.534C137.385 215.45 137.792 215.168 138.034 214.76C137.637 214.747 137.251 214.632 136.912 214.426Z" fill="#396CAA"/>
<path d="M135.603 168.017L120.578 159.345L96.6504 173.183L138.478 197.296V173.461C138.437 171.293 137.371 169.273 135.603 168.017V168.017Z" fill="#173D7A"/>
<path d="M135.603 146.964L120.578 138.283L96.6504 152.121L138.478 176.234V152.399C138.439 150.233 137.371 148.215 135.603 146.964Z" fill="#173D7A"/>
<path d="M135.603 125.902L120.578 117.23L96.6504 131.068L138.478 155.181V131.318C138.432 129.159 137.365 127.15 135.603 125.902V125.902Z" fill="#173D7A"/>
<path d="M135.603 104.849L120.578 96.168L96.6504 109.987L138.478 134.1V110.284C138.439 108.118 137.371 106.1 135.603 104.849V104.849Z" fill="#173D7A"/>
<path d="M135.603 104.849L102.336 85.6416L96.6504 88.9433L138.478 113.103V110.321C138.451 108.142 137.382 106.108 135.603 104.849V104.849Z" fill="#173D7A"/>
<path d="M138.433 113.103L96.6055 88.9431V102.261L138.433 126.412V113.103V113.103Z" fill="#5793CE"/>
<path d="M138.433 134.156L96.6055 110.005V123.314L138.433 147.465V134.156V134.156Z" fill="#5793CE"/>
<path d="M138.433 155.218L96.6055 131.068V144.376L138.433 168.527V155.218V155.218Z" fill="#5793CE"/>
<path d="M138.433 176.271L96.6055 152.121V165.429L138.433 189.58V176.271V176.271Z" fill="#5793CE"/>
<path d="M138.433 197.333L96.6055 173.183V186.492L138.433 210.642V197.333V197.333Z" fill="#5793CE"/>
<path d="M134.75 121.663L103.235 103.495C102.243 102.781 101.648 101.638 101.631 100.416V96.8543C101.631 95.6672 102.345 95.12 103.235 95.6301L134.768 113.827C135.762 114.54 136.358 115.683 136.373 116.906V120.467C136.354 121.636 135.603 122.183 134.75 121.663Z" fill="#173D7A"/>
<path opacity="0.3" d="M104.831 102.79C103.835 102.078 103.236 100.935 103.217 99.7109V96.1496C103.219 95.9776 103.241 95.8064 103.282 95.6395V95.6395C102.355 95.1294 101.678 95.6395 101.678 96.8637V100.425C101.686 101.636 102.263 102.773 103.236 103.495L134.769 121.682C135.043 121.93 135.438 121.991 135.775 121.838C136.111 121.685 136.324 121.347 136.318 120.977L104.831 102.79Z" fill="#06033E"/>
<path d="M124.863 111.897L105.925 100.954C105.576 100.702 105.366 100.299 105.359 99.8685V99.8685C105.359 99.4512 105.61 99.2564 105.925 99.4419L124.891 110.386C125.24 110.639 125.449 111.04 125.457 111.471V111.471C125.401 111.888 125.17 112.074 124.863 111.897Z" fill="white"/>
<path d="M134.751 142.596L103.218 124.399C102.224 123.686 101.628 122.543 101.613 121.32V117.759C101.613 116.572 102.327 116.025 103.218 116.544L134.751 134.731C135.743 135.445 136.339 136.588 136.355 137.81V141.372C136.355 142.559 135.604 143.106 134.751 142.596Z" fill="#173D7A"/>
<path opacity="0.3" d="M104.831 123.722C103.836 123.009 103.238 121.867 103.217 120.643V117.082C103.218 116.907 103.24 116.732 103.282 116.563V116.563C102.355 116.043 101.678 116.563 101.678 117.777V121.339C101.693 122.562 102.289 123.705 103.282 124.418L134.815 142.614C135.09 142.862 135.485 142.923 135.821 142.77C136.157 142.617 136.371 142.279 136.364 141.91L104.831 123.722Z" fill="#06033E"/>
<path d="M124.865 132.821L105.927 121.877C105.575 121.627 105.365 121.223 105.361 120.792V120.792C105.361 120.374 105.612 120.189 105.927 120.365L124.865 131.318C125.212 131.573 125.42 131.974 125.431 132.403V132.403C125.403 132.811 125.172 133.006 124.865 132.821Z" fill="white"/>
<path d="M134.751 163.714L103.218 145.527C102.225 144.812 101.63 143.67 101.613 142.447V138.886C101.613 137.699 102.327 137.152 103.218 137.662L134.751 155.858C135.744 156.571 136.34 157.714 136.355 158.937V162.499C136.355 163.686 135.604 164.233 134.751 163.714Z" fill="#173D7A"/>
<path opacity="0.3" d="M104.831 144.84C103.835 144.128 103.236 142.986 103.217 141.761V138.2C103.219 138.028 103.241 137.857 103.282 137.69V137.69C102.355 137.18 101.678 137.69 101.678 138.914V142.448C101.694 143.67 102.29 144.813 103.282 145.527L134.815 163.714C135.09 163.961 135.485 164.023 135.821 163.87C136.157 163.717 136.371 163.378 136.364 163.009L104.831 144.84Z" fill="#06033E"/>
<path d="M124.865 153.948L105.927 143.004C105.578 142.752 105.368 142.35 105.361 141.919V141.919C105.361 141.501 105.612 141.307 105.927 141.492L124.893 152.436C125.239 152.691 125.448 153.091 125.459 153.521V153.521C125.403 153.938 125.172 154.124 124.865 153.948Z" fill="#D4ECFF"/>
<path d="M134.751 185.036L103.218 166.839C102.226 166.129 101.63 164.989 101.613 163.769V160.199C101.613 159.011 102.327 158.474 103.218 158.984L134.751 177.171C135.743 177.885 136.339 179.027 136.355 180.25V183.821C136.355 185.008 135.604 185.546 134.751 185.036Z" fill="#173D7A"/>
<path opacity="0.3" d="M104.831 166.162C103.836 165.449 103.238 164.307 103.217 163.083V159.522C103.218 159.346 103.24 159.172 103.282 159.002V159.002C102.355 158.492 101.678 159.002 101.678 160.217V163.779C101.694 164.999 102.29 166.138 103.282 166.848L134.815 185.045C135.09 185.292 135.485 185.354 135.821 185.201C136.157 185.047 136.371 184.709 136.364 184.34L104.831 166.162Z" fill="#06033E"/>
<path d="M124.865 175.27L105.927 164.316C105.575 164.066 105.365 163.663 105.361 163.231V163.231C105.361 162.814 105.612 162.628 105.927 162.805L124.893 173.758C125.241 174.007 125.451 174.406 125.459 174.834V174.834C125.403 175.251 125.172 175.446 124.865 175.27Z" fill="#FF2C9C"/>
<path d="M134.751 205.931L103.218 187.735C102.224 187.025 101.628 185.885 101.613 184.665V181.094C101.613 179.907 102.327 179.369 103.218 179.879L134.751 198.066C135.743 198.78 136.339 199.923 136.355 201.145V204.716C136.355 205.903 135.604 206.441 134.751 205.931Z" fill="#173D7A"/>
<path opacity="0.3" d="M104.831 187.058C103.836 186.344 103.238 185.202 103.217 183.978V180.417C103.218 180.242 103.24 180.068 103.282 179.898V179.898C102.355 179.388 101.678 179.898 101.678 181.113V184.683C101.693 185.904 102.289 187.044 103.282 187.753L134.815 205.95C135.09 206.197 135.485 206.258 135.821 206.105C136.157 205.952 136.371 205.614 136.364 205.245L104.831 187.058Z" fill="#06033E"/>
<path d="M124.865 196.165L105.927 185.212C105.575 184.962 105.365 184.559 105.361 184.127V184.127C105.361 183.71 105.612 183.524 105.927 183.7L124.893 194.654C125.241 194.903 125.451 195.301 125.459 195.729V195.729C125.403 196.147 125.172 196.341 124.865 196.165Z" fill="#D4ECFF"/>
<path opacity="0.5" d="M96.6055 88.9434L99.8979 90.8446V104.163L96.6055 102.261V88.9434V88.9434Z" fill="#173D7A"/>
<path opacity="0.5" d="M96.6055 110.006L99.8979 111.907V125.216L96.6055 123.314V110.006V110.006Z" fill="#173D7A"/>
<path opacity="0.5" d="M96.6055 131.068L99.8979 132.96V146.278L96.6055 144.376V131.068V131.068Z" fill="#173D7A"/>
<path opacity="0.5" d="M96.6055 152.121L99.8979 154.022V167.331L96.6055 165.429V152.121V152.121Z" fill="#173D7A"/>
<path opacity="0.5" d="M96.6055 173.183L99.8979 175.084V188.393L96.6055 186.492V173.183V173.183Z" fill="#173D7A"/>
<path d="M128.593 113.214C128.593 113.632 128.297 113.808 127.926 113.595C127.535 113.337 127.288 112.911 127.258 112.445C127.258 112.018 127.564 111.842 127.926 112.055C128.321 112.312 128.569 112.743 128.593 113.214V113.214Z" fill="#D4ECFF"/>
<path d="M131.421 114.847C131.421 115.264 131.125 115.44 130.754 115.227C130.363 114.969 130.116 114.544 130.086 114.077C130.086 113.65 130.392 113.474 130.754 113.687C131.149 113.945 131.397 114.376 131.421 114.847V114.847Z" fill="#FF2C9C"/>
<path d="M134.25 116.479C134.25 116.896 133.953 117.073 133.582 116.859C133.189 116.604 132.941 116.177 132.914 115.709C132.914 115.283 133.211 115.106 133.582 115.32C133.977 115.577 134.225 116.008 134.25 116.479Z" fill="#D4ECFF"/>
<path d="M128.593 134.258C128.593 134.685 128.297 134.852 127.926 134.638C127.532 134.384 127.284 133.956 127.258 133.488C127.258 133.062 127.564 132.885 127.926 133.099C128.321 133.356 128.569 133.787 128.593 134.258V134.258Z" fill="#FF2C9C"/>
<path d="M131.421 135.89C131.421 136.317 131.125 136.484 130.754 136.28C130.362 136.019 130.115 135.59 130.086 135.121C130.086 134.694 130.392 134.527 130.754 134.731C131.149 134.989 131.397 135.419 131.421 135.89V135.89Z" fill="#D4ECFF"/>
<path d="M134.25 137.523C134.25 137.949 133.953 138.116 133.582 137.912C133.187 137.655 132.938 137.224 132.914 136.753C132.914 136.326 133.211 136.159 133.582 136.363C133.977 136.621 134.225 137.052 134.25 137.523Z" fill="white"/>
<path d="M128.592 155.432C128.592 155.849 128.295 156.025 127.924 155.812C127.532 155.551 127.285 155.122 127.256 154.653C127.226 154.483 127.306 154.313 127.456 154.227C127.606 154.142 127.793 154.16 127.924 154.272C128.319 154.53 128.567 154.961 128.592 155.432V155.432Z" fill="white"/>
<path d="M131.421 157.101C131.421 157.518 131.125 157.695 130.754 157.481C130.363 157.224 130.116 156.798 130.086 156.331C130.086 155.905 130.392 155.728 130.754 155.942C131.149 156.199 131.397 156.63 131.421 157.101V157.101Z" fill="#FF2C9C"/>
<path d="M134.25 158.733C134.25 159.151 133.953 159.327 133.582 159.114C133.189 158.858 132.941 158.431 132.914 157.964C132.914 157.537 133.211 157.361 133.582 157.574C133.977 157.832 134.225 158.262 134.25 158.733Z" fill="white"/>
<path d="M128.593 176.364C128.593 176.791 128.297 176.958 127.926 176.744C127.534 176.488 127.287 176.061 127.258 175.594C127.258 175.168 127.564 174.991 127.926 175.205C128.321 175.462 128.569 175.893 128.593 176.364V176.364Z" fill="white"/>
<path d="M131.421 177.996C131.421 178.423 131.125 178.59 130.754 178.377C130.362 178.12 130.115 177.694 130.086 177.227C130.086 176.8 130.392 176.624 130.754 176.837C131.149 177.094 131.397 177.525 131.421 177.996V177.996Z" fill="#D4ECFF"/>
<path d="M134.25 179.629C134.25 180.055 133.953 180.222 133.582 180.009C133.187 179.756 132.938 179.327 132.914 178.859C132.914 178.432 133.211 178.256 133.582 178.469C133.977 178.727 134.225 179.158 134.25 179.629Z" fill="#D4ECFF"/>
<path d="M128.593 197.547C128.593 197.974 128.297 198.14 127.926 197.927C127.534 197.671 127.287 197.244 127.258 196.777C127.258 196.35 127.564 196.174 127.926 196.388C128.321 196.645 128.569 197.076 128.593 197.547V197.547Z" fill="white"/>
<path d="M131.421 199.179C131.421 199.606 131.125 199.773 130.754 199.559C130.362 199.303 130.115 198.877 130.086 198.409C130.086 197.983 130.392 197.807 130.754 198.02C131.149 198.277 131.397 198.708 131.421 199.179V199.179Z" fill="#FF2C9C"/>
<path d="M134.25 200.812C134.25 201.238 133.953 201.405 133.582 201.192C133.187 200.938 132.938 200.51 132.914 200.042C132.914 199.615 133.211 199.439 133.582 199.652C133.977 199.91 134.225 200.341 134.25 200.812Z" fill="#D4ECFF"/>
<path fill-rule="evenodd" clip-rule="evenodd" d="M148.719 112.686V206.905L188.098 184.173L188.293 184.053V89.8337L148.914 112.575L148.719 112.686ZM149.516 205.514V113.131L187.541 91.1879V183.57L149.516 205.514Z" fill="#173D7A"/>
<path d="M178.063 132.246L160.441 142.447C159.254 143.134 158.299 142.447 158.299 140.824V131.012C158.32 129.38 159.115 127.855 160.441 126.903L178.063 116.702C179.25 116.015 180.214 116.748 180.214 118.325V128.118C180.196 129.758 179.396 131.291 178.063 132.246V132.246Z" fill="#173D7A"/>
<path d="M178.49 116.525C178.601 116.841 178.654 117.174 178.647 117.509V127.293C178.626 128.925 177.831 130.45 176.505 131.402L158.884 141.604C158.75 141.683 158.606 141.745 158.457 141.789C158.571 142.192 158.879 142.512 159.278 142.641C159.677 142.77 160.114 142.69 160.442 142.429L178.063 132.227C179.389 131.279 180.187 129.758 180.215 128.128V118.334C180.215 116.952 179.473 116.219 178.49 116.525Z" fill="#5793CE"/>
<path d="M185.161 129.684C185.755 129.354 186.217 129.684 186.217 130.294V134.271C186.178 135.011 185.785 135.687 185.161 136.086C184.583 136.416 184.121 136.086 184.121 135.475V131.515C184.158 130.775 184.544 130.096 185.161 129.684V129.684Z" fill="white"/>
<path d="M180.657 132.786C181.234 132.456 181.713 132.786 181.713 133.396V136.911C181.669 137.654 181.278 138.333 180.657 138.742C180.079 139.072 179.617 138.742 179.617 138.132V134.667C179.639 133.909 180.026 133.208 180.657 132.786Z" fill="#D4ECFF"/>
<path d="M176.152 131.515C176.729 131.185 177.208 131.515 177.208 132.126V139.468C177.167 140.208 176.774 140.883 176.152 141.283C175.574 141.63 175.096 141.283 175.096 140.689V133.33C175.139 132.592 175.531 131.918 176.152 131.515Z" fill="#FF2C9C"/>
<path d="M171.648 129.882C172.225 129.552 172.704 129.882 172.704 130.492V142.042C172.66 142.781 172.268 143.455 171.648 143.857C171.07 144.187 170.592 143.857 170.592 143.247V131.697C170.64 130.96 171.031 130.288 171.648 129.882V129.882Z" fill="#D4ECFF"/>
<path d="M167.142 133.71C167.719 133.363 168.198 133.71 168.198 134.304V144.666C168.154 145.409 167.763 146.088 167.142 146.497C166.564 146.827 166.086 146.497 166.086 145.887V135.525C166.127 134.786 166.519 134.111 167.142 133.71Z" fill="#D4ECFF"/>
<path d="M162.638 141.036C163.216 140.706 163.694 141.036 163.694 141.646V147.273C163.653 148.012 163.261 148.687 162.638 149.088C162.061 149.434 161.582 149.088 161.582 148.494V142.867C161.626 142.125 162.017 141.446 162.638 141.036Z" fill="white"/>
<path d="M184.137 127.687C184.137 128.347 184.599 128.611 185.16 128.281C185.773 127.889 186.16 127.226 186.199 126.499C186.199 125.839 185.737 125.559 185.16 125.889C184.554 126.294 184.175 126.96 184.137 127.687V127.687Z" fill="#FF2C9C"/>
<path d="M184.137 123.958C184.137 124.618 184.599 124.882 185.16 124.552C185.773 124.16 186.16 123.497 186.199 122.77C186.199 122.11 185.737 121.83 185.16 122.16C184.554 122.565 184.175 123.231 184.137 123.958Z" fill="white"/>
<defs>
<linearGradient id="paint0_linear_994:323" x1="190.45" y1="172.018" x2="190.45" y2="53.1714" gradientUnits="userSpaceOnUse">
<stop stop-color="#2D0979"/>
<stop offset="1" stop-color="#5B04F7"/>
</linearGradient>
<linearGradient id="paint1_linear_994:323" x1="89.0209" y1="201.236" x2="134.553" y2="202.711" gradientUnits="userSpaceOnUse">
<stop stop-color="#3919BB"/>
<stop offset="1" stop-color="#6507FA"/>
</linearGradient>
<linearGradient id="paint2_linear_994:323" x1="89.0209" y1="201.236" x2="134.553" y2="202.711" gradientUnits="userSpaceOnUse">
<stop stop-color="#3919BB"/>
<stop offset="1" stop-color="#6507FA"/>
</linearGradient>
</defs>
</svg>
