<svg width="54" height="54" viewBox="0 0 54 54" fill="none" xmlns="http://www.w3.org/2000/svg">
<path d="M24.1172 53.396L5.66726 42.6599C4.11219 41.7813 4.30548 40.1911 6.10654 39.1456L23.6779 28.9015C25.5489 27.8557 27.8056 27.7612 29.7576 28.6467L48.2075 39.3828C49.7713 40.2614 49.5693 41.8516 47.777 42.8971L30.2056 53.1412C28.3319 54.1885 26.0719 54.2831 24.1172 53.396V53.396Z" fill="#757575" fill-opacity="0.26"/>
<path d="M53.8475 20.0895V20.0895V15.6176H30.3458C28.4657 14.5369 25.1886 14.6687 23.0185 15.9251L23.7214 15.6263H7.84995e-05V20.3794C-0.00718098 21.2286 0.489607 22.0014 1.26522 22.3474L23.5105 35.2887C25.3819 36.3693 28.6677 36.2375 30.829 34.9812L52.064 22.6461C53.3115 21.8993 53.9441 20.968 53.8475 20.0895Z" fill="#721BD5"/>
<path d="M26.9457 14.8884C25.5719 14.91 24.224 15.2658 23.0185 15.9251L23.7214 15.6264H7.84995e-05V20.3795C-0.00718098 21.2287 0.489607 22.0015 1.26522 22.3475L23.5105 35.2888C24.5597 35.8275 25.7328 36.079 26.9106 36.018L26.9457 14.8884Z" fill="#983BE9"/>
<path d="M2.71388 15.6177H0.0254691V20.3707C0.0182096 21.22 0.514998 21.9927 1.29061 22.3387L2.71388 23.1558V15.6177Z" fill="#B45EF4"/>
<path d="M24.002 35.5083C25.8988 36.1952 27.98 36.1734 29.862 35.4468V29.2178H24.002V35.5083Z" fill="#7E23DC"/>
<path d="M23.5383 30.5533L1.29301 17.612C-0.587122 16.5226 -0.349909 14.6337 1.81137 13.3773L23.02 1.03346C25.19 -0.21411 28.4671 -0.354681 30.3472 0.734743L52.5925 13.676C54.4639 14.7567 54.2355 16.6544 52.0654 17.9019L30.8568 30.2546C28.6955 31.511 25.4097 31.6427 23.5383 30.5533Z" fill="#8A2AE3"/>
<path d="M27.6745 13.8606L21.1379 10.0564C20.748 9.92203 20.4863 9.55507 20.4863 9.14266C20.4863 8.73026 20.748 8.3633 21.1379 8.22895C22.1326 7.72772 23.3061 7.72772 24.3008 8.22895L30.8461 12.0331C31.236 12.1675 31.4977 12.5345 31.4977 12.9469C31.4977 13.3593 31.236 13.7262 30.8461 13.8606C29.849 14.3648 28.6716 14.3648 27.6745 13.8606Z" fill="#B45EF4"/>
<path d="M37.1891 19.4219L33.218 17.0761C32.8281 16.9418 32.5664 16.5748 32.5664 16.1624C32.5664 15.75 32.8281 15.3831 33.218 15.2487C34.2127 14.7475 35.3862 14.7475 36.3809 15.2487L40.352 17.5945C40.7419 17.7288 41.0036 18.0958 41.0036 18.5082C41.0036 18.9206 40.7419 19.2876 40.352 19.4219C39.3593 19.9317 38.1818 19.9317 37.1891 19.4219Z" fill="#B45EF4"/>
<path d="M18.5114 16.1974L14.5403 13.8604C14.1504 13.7261 13.8887 13.3591 13.8887 12.9467C13.8887 12.5343 14.1504 12.1673 14.5403 12.033C15.5329 11.5232 16.7105 11.5232 17.7031 12.033L21.6742 14.37C22.0642 14.5043 22.3259 14.8713 22.3259 15.2837C22.3259 15.6961 22.0642 16.0631 21.6742 16.1974C20.6816 16.7072 19.5041 16.7072 18.5114 16.1974V16.1974Z" fill="#B45EF4"/>
</svg>
