<svg width="226" height="226" viewBox="0 0 226 226" fill="none" xmlns="http://www.w3.org/2000/svg">
<circle cx="113" cy="113" r="113" fill="#4EA6AF"/>
<path opacity="0.5" d="M112.638 165.016L55.2778 131.899C54.675 131.555 54.3027 130.915 54.3027 130.221C54.3027 129.527 54.675 128.887 55.2778 128.543L109.823 97.0571L170.856 132.294C171.455 132.638 171.824 133.276 171.824 133.967C171.824 134.658 171.455 135.296 170.856 135.64L119.967 165.016C117.7 166.328 114.904 166.328 112.638 165.016V165.016Z" fill="#173D7A"/>
<path d="M110.99 74.0925C110.99 70.4539 108.416 68.9435 105.266 70.7886L51.6134 101.683C50.6814 102.283 50.0965 103.296 50.043 104.403C50.043 105.398 50.7467 105.81 51.6134 105.304L105.266 74.41C106.691 73.5948 107.841 74.2641 107.841 75.9032V81.9104C108.879 81.8504 109.926 81.8504 110.982 81.9104L110.99 74.0925Z" fill="#FF2C9C"/>
<path d="M51.5704 116.117L105.232 96.5593C108.609 94.3587 110.734 90.6805 110.956 86.656V81.8589C109.9 81.8589 108.853 81.8589 107.815 81.8589V88.4239C107.718 90.2392 106.762 91.8997 105.24 92.8949L51.5704 112.487C50.6384 113.087 50.0535 114.1 50 115.207C50.0172 116.211 50.7123 116.615 51.5704 116.117Z" fill="#D3008D"/>
<path d="M50.4297 116.186L115.693 153.954L170.951 121L175.336 114.452L174.881 116.769L173.706 110.702L71.1287 114.615L53.0557 113.448L50.4297 116.186V116.186Z" fill="#D3008D"/>
<path d="M52.5914 104.789L52.5742 112.822L115.658 149.319L117.357 141.665L52.5914 104.789V104.789Z" fill="#E573B5"/>
<path d="M174.519 108.119L109.359 70.4194L50.6084 104.583L50.4883 105.424L115.743 143.184L174.519 108.119V108.119Z" fill="#FF2C9C"/>
<path d="M153.753 127.479L169.072 118.391C170.436 117.371 171.281 115.801 171.38 114.1V112.899C171.471 112.139 171.047 111.411 170.342 111.114L140.186 127.891L115.625 141.175V149.302L153.753 127.479Z" fill="white"/>
<path d="M117.838 141.939L53.0888 104.523L51.7158 103.725L50.4543 102.996C50.2033 103.445 50.0621 103.948 50.0423 104.463C50.0045 104.853 50.1739 105.234 50.4886 105.467V105.467L115.709 143.227L117.838 141.939Z" fill="#D3008D"/>
<path d="M114.877 153.482L115.692 153.954L115.847 153.696L115.34 153.293L114.877 153.482V153.482Z" fill="white"/>
<path d="M114.903 142.694L115.736 143.175L115.53 142.72L114.903 142.694V142.694Z" fill="white"/>
<path d="M116.877 139.45L170.529 108.556C173.679 106.737 176.245 108.222 176.245 111.869V113.07C176.016 117.095 173.888 120.771 170.512 122.974L116.86 153.868C116.001 154.365 115.289 153.962 115.289 152.958C115.345 151.854 115.93 150.844 116.86 150.246L170.512 119.352C172.033 118.361 172.99 116.703 173.087 114.89V113.688C173.087 112.041 171.928 111.371 170.512 112.195L116.86 143.089C116.001 143.587 115.289 143.183 115.289 142.179C115.344 141.066 115.936 140.048 116.877 139.45Z" fill="#FF2C9C"/>
<path d="M115.28 152.958C115.336 151.854 115.921 150.845 116.85 150.246L170.503 119.352C172.024 118.361 172.981 116.703 173.078 114.89V113.688C173.078 112.607 172.58 111.972 171.833 111.861C172.105 112.249 172.241 112.717 172.22 113.191V114.392C172.123 116.205 171.166 117.863 169.645 118.855L115.992 149.749C115.063 150.347 114.478 151.356 114.422 152.461C114.422 153.224 114.825 153.636 115.4 153.576C115.315 153.382 115.274 153.171 115.28 152.958V152.958Z" fill="white"/>
<path d="M115.298 142.171C115.353 141.062 115.941 140.049 116.877 139.451L170.529 108.557C171.577 107.834 172.891 107.614 174.116 107.956C173.07 107.098 171.465 107.029 169.663 108.059L116.01 138.953C115.083 139.558 114.5 140.568 114.439 141.673C114.439 142.437 114.843 142.849 115.418 142.789C115.334 142.594 115.293 142.383 115.298 142.171V142.171Z" fill="white"/>
<path d="M90.4883 108.866L120.087 91.8137L145.763 106.66L116.156 123.72L90.4883 108.866V108.866Z" fill="white"/>
</svg>
