<svg width="240" height="240" viewBox="0 0 240 240" fill="none" xmlns="http://www.w3.org/2000/svg">
<circle cx="120" cy="120" r="120" fill="#CC6D71"/>
<mask id="mask0_994:199" style="mask-type:alpha" maskUnits="userSpaceOnUse" x="0" y="0" width="240" height="240">
<circle cx="120" cy="120" r="120" fill="#FFD0B6"/>
</mask>
<g mask="url(#mask0_994:199)">
<path d="M49.3644 152.462L119.491 193.566C121.476 194.725 124.93 194.54 127.188 193.164L174.421 164.319C176.689 162.937 176.918 160.873 174.933 159.709L150.826 145.575C152.647 145.425 154.416 144.873 156.014 143.957C159.646 141.74 159.614 138.194 155.942 136.037C152.27 133.88 146.343 133.939 142.71 136.157C141.237 137.05 140.393 138.153 140.117 139.296L134.421 135.955C135.553 135.689 136.64 135.25 137.647 134.652C141.353 132.388 141.32 128.771 137.574 126.574C133.827 124.377 127.781 124.431 124.075 126.696C123.241 127.179 122.52 127.848 121.965 128.654L104.81 118.575C102.826 117.411 99.3721 117.601 97.1139 118.972L49.8756 147.853C47.6125 149.224 47.3794 151.288 49.3644 152.462Z" fill="#0D243C" fill-opacity="0.42"/>
<path d="M189.598 84.5525L120.123 44.429C119.418 43.9851 118.553 43.8795 117.762 44.1411V44.1411L117.64 44.1883H117.607L115.095 45.1324L117.352 46.2369C117.352 46.2794 117.328 46.3172 117.319 46.3597L105.99 97.8688C105.423 100.446 106.556 103.458 108.52 104.591L176.324 143.737L176.083 146.612L178.826 145.545C179.77 145.115 180.487 144.129 180.789 142.75L192.118 91.2413C192.694 88.7017 191.561 85.6854 189.598 84.5525Z" fill="#173D7A"/>
<path d="M189.598 84.5525L120.123 44.429C119.419 43.9851 118.553 43.8795 117.763 44.1411V44.1411L117.64 44.1883H117.607L115.096 45.1324L117.352 46.2369C117.352 46.2794 117.329 46.3172 117.319 46.3597L109.875 80.3419L143.862 106.823L191.793 87.3234C191.391 86.1805 190.619 85.2051 189.598 84.5525Z" fill="#396CAA"/>
<path d="M186.977 92.478L192.264 90.2264C192.363 88.1825 191.514 86.063 190.121 84.9348L181.752 88.4562L186.977 92.478Z" fill="#274F89"/>
<path d="M173.69 146.371L104.21 106.262C102.242 105.124 101.109 102.117 101.675 99.5397L113.004 48.0259C113.571 45.4485 115.624 44.2826 117.588 45.4155L187.063 85.5389C189.026 86.6718 190.164 89.6835 189.597 92.2608L178.269 143.77C177.707 146.333 175.658 147.504 173.69 146.371Z" fill="#D4ECFF"/>
<path d="M172.183 142.538L106.848 104.836C105.05 103.798 104.016 101.06 104.531 98.6995L114.882 51.5615C115.402 49.2013 117.28 48.1298 119.079 49.1683L184.419 86.8607C186.217 87.8992 187.251 90.6371 186.736 92.9973L176.38 140.154C175.861 142.514 173.982 143.576 172.183 142.538Z" fill="white"/>
<path d="M172.183 142.538L106.848 104.836C105.05 103.798 104.016 101.06 104.531 98.6995L114.882 51.5615C115.402 49.2013 117.28 48.1298 119.079 49.1683L184.419 86.8607C186.217 87.8992 187.251 90.6371 186.736 92.9973L176.38 140.154C175.861 142.514 173.982 143.576 172.183 142.538Z" fill="white"/>
<path d="M174.652 148.117L165.154 146.862L103.85 111.459C101.887 110.321 98.4551 110.463 96.1845 111.775L52.7568 136.85L47.0121 136.09V139.347V139.347C46.9743 140.097 47.4038 140.824 48.3338 141.358L117.804 181.481C119.772 182.619 123.204 182.473 125.475 181.165L172.773 153.843C174.052 153.107 174.661 152.153 174.661 151.266V151.266L174.652 148.117Z" fill="#173D7A"/>
<path d="M128.59 125.752L124.233 123.241H76.3588L52.7568 136.85L47.0121 136.09V139.347V139.347C46.9743 140.098 47.4038 140.824 48.3338 141.358L117.804 181.481C119.025 182.101 120.397 182.358 121.76 182.222L128.59 125.752Z" fill="#396CAA"/>
<path d="M49.5533 136.435L47.0042 136.099V139.356V139.356C46.9665 140.107 47.396 140.834 48.326 141.367L49.5485 142.075L49.5533 136.435Z" fill="#5793CE"/>
<path d="M118.5 181.807C120.646 182.503 122.976 182.358 125.019 181.401V174.141H118.5V181.807Z" fill="#274F89"/>
<path d="M117.8 178.229L48.3297 138.106C46.3613 136.968 46.6068 134.985 48.8773 133.678L96.1852 106.389C98.4557 105.077 101.887 104.935 103.851 106.068L173.326 146.192C175.29 147.324 175.044 149.307 172.774 150.615L125.452 177.917C123.2 179.22 119.787 179.362 117.8 178.229Z" fill="#D4ECFF"/>
<path d="M77.8746 124.837L74.7308 123.024C74.4806 122.878 74.5136 122.623 74.8016 122.457L78.5118 120.314C78.815 120.144 79.1816 120.128 79.4984 120.272L82.6422 122.089C82.8924 122.231 82.864 122.486 82.5714 122.656L78.8611 124.799C78.5565 124.966 78.1911 124.98 77.8746 124.837V124.837Z" fill="#173D7A"/>
<path d="M82.7316 127.64L79.5878 125.828C79.3329 125.681 79.3659 125.427 79.6586 125.257L83.3688 123.114C83.6718 122.947 84.0358 122.933 84.3507 123.076L87.4945 124.888C87.7494 125.035 87.7163 125.29 87.4237 125.46L83.7134 127.603C83.4105 127.77 83.0465 127.784 82.7316 127.64V127.64Z" fill="#173D7A"/>
<path d="M87.5832 130.444L84.4394 128.627C84.1892 128.485 84.2175 128.231 84.5102 128.061L88.2204 125.918C88.5251 125.751 88.8905 125.737 89.207 125.88L92.3508 127.692C92.601 127.839 92.5679 128.094 92.28 128.259L88.5697 130.402C88.2665 130.573 87.9 130.589 87.5832 130.444V130.444Z" fill="#173D7A"/>
<path d="M94.2964 128.131L91.1526 126.314C90.9025 126.168 90.9355 125.913 91.2235 125.748L94.3389 123.949C94.6422 123.778 95.0087 123.763 95.3255 123.907L98.4693 125.724C98.7195 125.866 98.6864 126.121 98.3985 126.29L95.283 128.089C94.9791 128.258 94.6137 128.273 94.2964 128.131V128.131Z" fill="#173D7A"/>
<path d="M99.1554 130.931L96.0116 129.118C95.7567 128.972 95.7898 128.717 96.0824 128.547L99.1932 126.748C99.4978 126.581 99.8632 126.567 100.18 126.711L103.324 128.523C103.574 128.67 103.545 128.924 103.253 129.094L100.137 130.893C99.8343 131.06 99.4703 131.074 99.1554 130.931V130.931Z" fill="#173D7A"/>
<path d="M104.007 133.735L100.863 131.922C100.613 131.776 100.641 131.521 100.934 131.351L104.049 129.552C104.352 129.385 104.716 129.371 105.031 129.514L108.175 131.327C108.43 131.473 108.397 131.728 108.104 131.894L104.994 133.692C104.69 133.863 104.324 133.879 104.007 133.735V133.735Z" fill="#173D7A"/>
<path d="M108.859 136.538L105.715 134.721C105.465 134.575 105.498 134.325 105.786 134.155L108.901 132.356C109.205 132.185 109.571 132.17 109.888 132.314L113.032 134.131C113.282 134.277 113.249 134.532 112.961 134.697L109.846 136.496C109.542 136.667 109.176 136.683 108.859 136.538V136.538Z" fill="#173D7A"/>
<path d="M113.716 139.342L110.572 137.525C110.317 137.379 110.35 137.124 110.643 136.959L113.758 135.16C114.06 134.989 114.425 134.974 114.74 135.118L117.884 136.93C118.139 137.077 118.106 137.331 117.813 137.501L114.698 139.3C114.396 139.468 114.032 139.484 113.716 139.342Z" fill="#173D7A"/>
<path d="M118.57 142.142L115.426 140.329C115.176 140.183 115.204 139.928 115.497 139.758L118.612 137.959C118.917 137.792 119.282 137.778 119.599 137.922L122.738 139.734C122.993 139.88 122.959 140.135 122.667 140.305L119.556 142.104C119.251 142.271 118.886 142.285 118.57 142.142V142.142Z" fill="#173D7A"/>
<path d="M123.422 144.945L120.283 143.133C120.028 142.986 120.061 142.732 120.354 142.562L123.465 140.763C123.769 140.595 124.134 140.579 124.451 140.721L127.595 142.538C127.845 142.684 127.817 142.939 127.524 143.104L124.409 144.903C124.106 145.074 123.739 145.09 123.422 144.945Z" fill="#173D7A"/>
<path d="M128.284 147.749L125.141 145.932C124.886 145.786 124.919 145.531 125.211 145.366L128.327 143.567C128.628 143.396 128.993 143.381 129.309 143.525L132.452 145.342C132.707 145.488 132.674 145.738 132.382 145.908L129.266 147.707C128.965 147.878 128.599 147.893 128.284 147.749V147.749Z" fill="#173D7A"/>
<path d="M133.132 150.539L129.989 148.726C129.738 148.58 129.771 148.325 130.059 148.16L133.175 146.362C133.478 146.191 133.845 146.175 134.161 146.319L137.305 148.132C137.555 148.278 137.522 148.533 137.234 148.703L134.119 150.501C133.814 150.668 133.449 150.682 133.132 150.539Z" fill="#173D7A"/>
<path d="M137.989 153.371L134.846 151.559C134.591 151.412 134.624 151.157 134.916 150.988L138.027 149.189C138.332 149.022 138.697 149.008 139.014 149.151L142.158 150.964C142.408 151.11 142.379 151.365 142.087 151.535L138.971 153.334C138.668 153.5 138.304 153.514 137.989 153.371V153.371Z" fill="#173D7A"/>
<path d="M101.448 126.805L98.3085 124.988C98.0536 124.841 98.0866 124.586 98.3793 124.421L101.49 122.623C101.793 122.452 102.16 122.436 102.477 122.58L105.62 124.393C105.871 124.539 105.842 124.794 105.55 124.964L102.434 126.763C102.129 126.928 101.765 126.944 101.448 126.805V126.805Z" fill="#396CAA"/>
<path d="M96.5246 123.959L93.3808 122.141C93.1259 122 93.1589 121.745 93.4516 121.575L96.567 119.776C96.8692 119.608 97.2333 119.592 97.5489 119.734L100.693 121.551C100.948 121.697 100.915 121.952 100.622 122.118L97.5064 123.916C97.2048 124.087 96.8397 124.103 96.5246 123.959V123.959Z" fill="#396CAA"/>
<path d="M91.5874 121.107L84.8183 117.199C84.5681 117.053 84.5964 116.798 84.8891 116.632L88.0046 114.834C88.3078 114.663 88.6743 114.647 88.9911 114.791L95.7602 118.7C96.0104 118.846 95.9773 119.101 95.6894 119.271L92.5739 121.07C92.2693 121.237 91.9039 121.251 91.5874 121.107V121.107Z" fill="#173D7A"/>
<path d="M95.0375 117.642L89.5429 114.47C89.2927 114.324 89.321 114.074 89.6137 113.904L92.7292 112.105C93.0324 111.935 93.399 111.919 93.7157 112.063L99.2056 115.235C99.4605 115.381 99.4274 115.636 99.1348 115.806L96.024 117.605C95.7194 117.772 95.354 117.786 95.0375 117.642V117.642Z" fill="#173D7A"/>
<path d="M106.306 129.604L103.162 127.792C102.907 127.645 102.94 127.39 103.233 127.22L106.348 125.422C106.651 125.255 107.015 125.241 107.33 125.384L110.474 127.197C110.729 127.343 110.696 127.598 110.403 127.768L107.288 129.566C106.985 129.733 106.621 129.747 106.306 129.604V129.604Z" fill="#396CAA"/>
<path d="M111.158 132.408L108.014 130.591C107.764 130.449 107.797 130.194 108.085 130.024L111.2 128.226C111.504 128.057 111.87 128.042 112.187 128.183L115.331 130.001C115.581 130.147 115.548 130.402 115.26 130.567L112.144 132.366C111.841 132.536 111.475 132.552 111.158 132.408Z" fill="#173D7A"/>
<path d="M116.011 135.212L112.867 133.395C112.612 133.248 112.645 132.993 112.938 132.828L116.049 131.03C116.352 130.859 116.718 130.843 117.035 130.987L120.179 132.805C120.429 132.951 120.401 133.201 120.108 133.371L116.993 135.17C116.691 135.34 116.326 135.356 116.011 135.212V135.212Z" fill="#173D7A"/>
<path d="M120.868 138.011L117.725 136.199C117.474 136.052 117.503 135.797 117.795 135.632L120.911 133.834C121.212 133.663 121.577 133.647 121.893 133.791L125.036 135.604C125.291 135.75 125.258 136.005 124.966 136.175L121.855 137.973C121.55 138.14 121.185 138.154 120.868 138.011V138.011Z" fill="#173D7A"/>
<path d="M125.72 140.815L122.576 139.002C122.326 138.856 122.359 138.601 122.647 138.431L125.763 136.633C126.067 136.466 126.433 136.452 126.749 136.595L129.893 138.408C130.143 138.554 130.11 138.809 129.822 138.979L126.707 140.772C126.404 140.943 126.037 140.959 125.72 140.815Z" fill="#173D7A"/>
<path d="M130.577 143.619L127.433 141.802C127.179 141.66 127.212 141.405 127.504 141.235L130.62 139.437C130.922 139.268 131.286 139.252 131.602 139.394L134.745 141.212C135 141.358 134.967 141.613 134.675 141.778L131.559 143.576C131.258 143.747 130.892 143.763 130.577 143.619V143.619Z" fill="#173D7A"/>
<path d="M135.431 146.423L132.287 144.606C132.037 144.459 132.065 144.204 132.358 144.039L135.473 142.241C135.777 142.07 136.143 142.054 136.46 142.198L139.599 144.016C139.854 144.157 139.821 144.412 139.528 144.582L136.417 146.38C136.114 146.549 135.748 146.565 135.431 146.423V146.423Z" fill="#173D7A"/>
<path d="M140.284 149.222L137.145 147.41C136.89 147.263 136.923 147.008 137.211 146.838L140.326 145.04C140.631 144.873 140.997 144.859 141.313 145.002L144.457 146.815C144.707 146.961 144.679 147.216 144.386 147.386L141.271 149.184C140.966 149.351 140.6 149.365 140.284 149.222Z" fill="#173D7A"/>
<path d="M145.14 152.026L141.996 150.213C141.741 150.067 141.774 149.812 142.067 149.642L145.182 147.844C145.485 147.677 145.849 147.663 146.164 147.806L149.308 149.619C149.563 149.765 149.53 150.02 149.237 150.185L146.122 151.984C145.82 152.154 145.455 152.17 145.14 152.026V152.026Z" fill="#173D7A"/>
<path d="M153.775 157.011L146.916 153.05C146.666 152.904 146.694 152.649 146.987 152.479L150.102 150.681C150.405 150.514 150.769 150.5 151.084 150.643L157.943 154.603C158.198 154.745 158.165 155 157.872 155.17L154.761 156.968C154.457 157.137 154.092 157.153 153.775 157.011Z" fill="#173D7A"/>
<path d="M163.215 151.554L157.428 148.212C157.173 148.066 157.206 147.811 157.498 147.641L160.614 145.842C160.917 145.675 161.281 145.661 161.596 145.805L167.388 149.147C167.638 149.293 167.605 149.543 167.317 149.713L164.201 151.511C163.898 151.682 163.532 151.698 163.215 151.554Z" fill="#173D7A"/>
<path d="M114.808 129.057L111.664 127.244C111.409 127.098 111.442 126.843 111.735 126.673L114.85 124.874C115.153 124.707 115.517 124.693 115.832 124.837L118.976 126.649C119.231 126.795 119.198 127.05 118.905 127.216L115.79 129.014C115.488 129.185 115.123 129.201 114.808 129.057V129.057Z" fill="#173D7A"/>
<path d="M109.831 126.187L106.687 124.369C106.433 124.223 106.466 123.968 106.758 123.803L109.874 122.004C110.175 121.834 110.54 121.818 110.856 121.962L113.999 123.779C114.254 123.921 114.221 124.176 113.929 124.346L110.813 126.144C110.511 126.313 110.147 126.328 109.831 126.187V126.187Z" fill="#173D7A"/>
<path d="M104.857 123.312L101.713 121.499C101.458 121.353 101.491 121.098 101.784 120.928L104.899 119.129C105.202 118.962 105.566 118.948 105.881 119.092L109.025 120.904C109.28 121.051 109.247 121.306 108.954 121.471L105.838 123.269C105.537 123.44 105.172 123.456 104.857 123.312V123.312Z" fill="#396CAA"/>
<path d="M99.8801 120.442L96.7363 118.625C96.4861 118.478 96.5144 118.223 96.8071 118.058L99.9225 116.26C100.224 116.089 100.589 116.073 100.904 116.217L104.048 118.035C104.303 118.176 104.27 118.431 103.977 118.601L100.862 120.399C100.56 120.568 100.196 120.584 99.8801 120.442Z" fill="#173D7A"/>
<path d="M119.659 131.86L116.516 130.043C116.265 129.897 116.294 129.647 116.586 129.477L119.702 127.678C120.005 127.507 120.372 127.492 120.688 127.636L123.827 129.453C124.082 129.599 124.049 129.854 123.761 130.019L120.646 131.818C120.343 131.989 119.976 132.005 119.659 131.86Z" fill="#173D7A"/>
<path d="M124.508 134.664L121.369 132.847C121.114 132.701 121.147 132.446 121.44 132.281L124.551 130.482C124.854 130.311 125.22 130.296 125.537 130.44L128.681 132.252C128.931 132.399 128.903 132.654 128.61 132.823L125.495 134.622C125.191 134.79 124.825 134.806 124.508 134.664Z" fill="#173D7A"/>
<path d="M129.37 137.464L126.226 135.651C125.972 135.505 126.005 135.25 126.297 135.08L129.413 133.281C129.716 133.114 130.08 133.1 130.395 133.243L133.538 135.056C133.793 135.202 133.76 135.457 133.468 135.627L130.352 137.426C130.049 137.593 129.685 137.607 129.37 137.464Z" fill="#173D7A"/>
<path d="M134.222 140.267L131.078 138.455C130.828 138.308 130.861 138.054 131.149 137.884L134.265 136.085C134.569 135.917 134.934 135.901 135.251 136.043L138.395 137.86C138.645 138.006 138.612 138.261 138.324 138.427L135.209 140.225C134.906 140.396 134.539 140.412 134.222 140.267Z" fill="#173D7A"/>
<path d="M139.079 143.071L135.935 141.254C135.681 141.108 135.714 140.853 136.006 140.688L139.117 138.889C139.42 138.718 139.787 138.703 140.104 138.847L143.247 140.664C143.498 140.81 143.469 141.06 143.177 141.23L140.061 143.029C139.76 143.2 139.394 143.215 139.079 143.071V143.071Z" fill="#173D7A"/>
<path d="M143.933 145.871L140.789 144.058C140.539 143.912 140.567 143.657 140.86 143.491L143.975 141.693C144.277 141.522 144.642 141.507 144.957 141.651L148.11 143.458C148.365 143.605 148.332 143.86 148.04 144.03L144.919 145.819C144.617 145.99 144.251 146.009 143.933 145.871V145.871Z" fill="#173D7A"/>
<path d="M148.785 148.675L145.641 146.862C145.391 146.716 145.424 146.461 145.712 146.291L148.827 144.492C149.132 144.325 149.497 144.311 149.814 144.454L152.958 146.267C153.208 146.413 153.175 146.668 152.887 146.838L149.771 148.637C149.467 148.804 149.101 148.818 148.785 148.675V148.675Z" fill="#173D7A"/>
<path d="M153.642 151.483L150.498 149.666C150.243 149.524 150.276 149.269 150.569 149.099L153.684 147.301C153.986 147.132 154.35 147.117 154.666 147.258L157.81 149.076C158.065 149.222 158.032 149.477 157.739 149.642L154.624 151.441C154.322 151.611 153.957 151.627 153.642 151.483Z" fill="#173D7A"/>
<path d="M158.495 154.282L155.352 152.465C155.101 152.319 155.13 152.064 155.422 151.899L158.538 150.1C158.841 149.929 159.208 149.913 159.524 150.058L162.663 151.875C162.918 152.017 162.885 152.271 162.593 152.441L159.482 154.24C159.178 154.408 158.813 154.424 158.495 154.282V154.282Z" fill="#173D7A"/>
<path d="M112.233 122.127L109.104 120.328C108.854 120.182 108.887 119.927 109.175 119.762L112.29 117.964C112.593 117.793 112.96 117.777 113.277 117.921L116.42 119.734C116.671 119.88 116.638 120.135 116.35 120.305L113.234 122.103C112.923 122.268 112.552 122.276 112.233 122.127V122.127Z" fill="#173D7A"/>
<path d="M107.419 119.337L104.275 117.52C104.025 117.373 104.053 117.119 104.346 116.953L107.462 115.155C107.771 114.987 108.142 114.98 108.458 115.136L111.601 116.953C111.856 117.1 111.823 117.355 111.531 117.52L108.42 119.318C108.109 119.486 107.736 119.493 107.419 119.337Z" fill="#173D7A"/>
<path d="M102.591 116.552L99.4472 114.735C99.1923 114.593 99.2253 114.338 99.518 114.168L102.633 112.37C102.936 112.201 103.3 112.186 103.615 112.327L106.759 114.145C107.014 114.291 106.981 114.546 106.688 114.711L103.573 116.51C103.271 116.68 102.906 116.696 102.591 116.552V116.552Z" fill="#173D7A"/>
<path d="M97.7562 113.758L94.6171 111.945C94.3622 111.799 94.3952 111.544 94.6879 111.374L97.7986 109.576C98.1033 109.408 98.4687 109.394 98.7852 109.538L101.929 111.35C102.179 111.497 102.151 111.752 101.858 111.922L98.7427 113.72C98.4381 113.887 98.0727 113.901 97.7562 113.758Z" fill="#173D7A"/>
<path d="M102.728 110.888L99.5839 109.07C99.329 108.924 99.362 108.669 99.6547 108.504L100.684 107.909C100.985 107.738 101.35 107.723 101.666 107.867L104.809 109.684C105.064 109.83 105.031 110.08 104.739 110.25L103.71 110.845C103.408 111.016 103.043 111.032 102.728 110.888V110.888Z" fill="#173D7A"/>
<path d="M109.03 114.532L105.887 112.714C105.636 112.568 105.665 112.313 105.957 112.148L106.987 111.553C107.29 111.382 107.656 111.367 107.973 111.511L111.117 113.328C111.367 113.474 111.334 113.725 111.046 113.894L110.017 114.489C109.714 114.66 109.347 114.676 109.03 114.532V114.532Z" fill="#173D7A"/>
<path d="M113.839 117.307L110.695 115.49C110.445 115.348 110.473 115.094 110.766 114.924L111.795 114.329C112.099 114.16 112.464 114.145 112.782 114.286L115.925 116.104C116.176 116.25 116.143 116.505 115.855 116.67L114.826 117.265C114.522 117.436 114.156 117.452 113.839 117.307V117.307Z" fill="#173D7A"/>
<path d="M118.65 120.083L115.506 118.27C115.256 118.124 115.284 117.869 115.577 117.699L116.606 117.104C116.91 116.937 117.276 116.923 117.592 117.067L120.736 118.879C120.986 119.026 120.953 119.28 120.665 119.45L119.636 120.045C119.332 120.212 118.966 120.226 118.65 120.083Z" fill="#173D7A"/>
<path d="M123.458 122.863L120.314 121.046C120.064 120.9 120.093 120.645 120.385 120.479L121.414 119.885C121.717 119.714 122.084 119.698 122.401 119.842L125.545 121.66C125.795 121.801 125.762 122.056 125.474 122.226L124.445 122.821C124.141 122.989 123.775 123.005 123.458 122.863Z" fill="#173D7A"/>
<path d="M150.314 138.365L147.166 136.552C146.911 136.406 146.944 136.151 147.237 135.981L148.266 135.387C148.57 135.22 148.936 135.206 149.252 135.349L152.396 137.161C152.646 137.308 152.613 137.563 152.325 137.728L151.292 138.323C150.991 138.492 150.628 138.508 150.314 138.365Z" fill="#173D7A"/>
<path d="M155.124 141.141L151.98 139.328C151.725 139.182 151.759 138.927 152.051 138.757L153.08 138.167C153.383 137.996 153.75 137.98 154.067 138.124L157.211 139.937C157.461 140.083 157.428 140.338 157.14 140.508L156.106 141.098C155.804 141.267 155.44 141.283 155.124 141.141Z" fill="#173D7A"/>
<path d="M159.935 143.93L156.791 142.113C156.536 141.967 156.569 141.712 156.862 141.547L157.891 140.952C158.194 140.781 158.561 140.765 158.877 140.909L162.021 142.727C162.271 142.873 162.238 143.123 161.95 143.293L160.917 143.888C160.615 144.059 160.25 144.074 159.935 143.93V143.93Z" fill="#173D7A"/>
<path d="M164.743 146.697L161.6 144.875C161.345 144.728 161.378 144.473 161.67 144.303L162.699 143.709C163.004 143.542 163.369 143.528 163.686 143.671L166.83 145.483C167.08 145.63 167.047 145.885 166.759 146.05L165.725 146.645C165.425 146.818 165.06 146.838 164.743 146.697Z" fill="#173D7A"/>
<path d="M117.107 124.926L113.963 123.114C113.708 122.967 113.741 122.712 114.034 122.542L117.144 120.744C117.449 120.577 117.814 120.563 118.131 120.706L121.275 122.519C121.525 122.665 121.497 122.92 121.204 123.09L118.088 124.888C117.785 125.055 117.421 125.069 117.107 124.926V124.926Z" fill="#173D7A"/>
<path d="M121.958 127.73L118.814 125.913C118.564 125.771 118.593 125.516 118.885 125.346L122.001 123.548C122.303 123.379 122.667 123.364 122.983 123.505L126.126 125.323C126.381 125.469 126.348 125.724 126.055 125.889L122.945 127.688C122.642 127.858 122.275 127.874 121.958 127.73Z" fill="#173D7A"/>
<path d="M126.812 130.534L123.668 128.717C123.418 128.57 123.451 128.315 123.739 128.15L126.855 126.352C127.158 126.181 127.524 126.165 127.841 126.309L130.985 128.127C131.235 128.273 131.202 128.523 130.914 128.693L127.799 130.492C127.495 130.662 127.129 130.678 126.812 130.534Z" fill="#173D7A"/>
<path d="M131.669 133.333L128.525 131.521C128.27 131.374 128.303 131.119 128.596 130.954L131.712 129.156C132.013 128.985 132.378 128.969 132.693 129.113L135.837 130.926C136.092 131.072 136.059 131.327 135.766 131.497L132.651 133.295C132.348 133.462 131.984 133.476 131.669 133.333Z" fill="#173D7A"/>
<path d="M136.521 136.137L133.377 134.325C133.127 134.178 133.155 133.923 133.448 133.753L136.563 131.955C136.868 131.788 137.233 131.774 137.55 131.917L140.689 133.73C140.944 133.876 140.911 134.131 140.618 134.301L137.507 136.099C137.203 136.266 136.837 136.28 136.521 136.137V136.137Z" fill="#173D7A"/>
<path d="M141.373 138.941L138.234 137.124C137.979 136.982 138.012 136.727 138.305 136.557L141.416 134.759C141.72 134.59 142.085 134.574 142.402 134.716L145.546 136.534C145.796 136.68 145.768 136.935 145.475 137.1L142.36 138.899C142.057 139.069 141.69 139.085 141.373 138.941V138.941Z" fill="#173D7A"/>
<path d="M146.222 141.745L143.078 139.928C142.823 139.781 142.856 139.526 143.149 139.361L146.264 137.563C146.566 137.392 146.931 137.376 147.246 137.52L150.39 139.338C150.645 139.479 150.612 139.734 150.319 139.904L147.204 141.702C146.901 141.871 146.537 141.887 146.222 141.745Z" fill="#173D7A"/>
<path d="M151.084 144.544L147.94 142.732C147.69 142.585 147.723 142.33 148.011 142.16L151.126 140.362C151.431 140.195 151.796 140.181 152.113 140.324L155.256 142.137C155.507 142.283 155.474 142.538 155.186 142.708L152.07 144.506C151.765 144.673 151.4 144.687 151.084 144.544V144.544Z" fill="#173D7A"/>
<path d="M155.941 147.348L152.797 145.535C152.542 145.389 152.575 145.134 152.868 144.964L155.978 143.166C156.283 142.999 156.648 142.985 156.965 143.128L160.109 144.941C160.359 145.087 160.331 145.342 160.038 145.507L156.922 147.306C156.621 147.476 156.256 147.492 155.941 147.348V147.348Z" fill="#173D7A"/>
<path d="M89.3504 125.276L80.0937 119.927C79.8435 119.781 79.8718 119.526 80.1645 119.361L83.28 117.562C83.5815 117.392 83.9466 117.376 84.2618 117.52L93.5233 122.868C93.7734 123.01 93.7404 123.265 93.4524 123.435L90.337 125.233C90.0331 125.402 89.6676 125.417 89.3504 125.276V125.276Z" fill="#173D7A"/>
<path d="M148.987 159.706L139.73 154.358C139.475 154.212 139.509 153.961 139.801 153.792L142.917 151.993C143.218 151.822 143.583 151.807 143.898 151.951L153.155 157.299C153.41 157.44 153.377 157.695 153.084 157.865L149.997 159.664C149.688 159.843 149.31 159.858 148.987 159.706Z" fill="#173D7A"/>
<path d="M129.573 154.688L126.434 152.871C126.179 152.724 126.212 152.47 126.5 152.304L130.215 150.161C130.517 149.993 130.881 149.977 131.197 150.119L134.341 151.936C134.591 152.082 134.562 152.337 134.27 152.503L130.56 154.646C130.256 154.816 129.89 154.832 129.573 154.688V154.688Z" fill="#173D7A"/>
<path d="M94.3205 134.334L89.2933 131.431C89.0431 131.285 89.0761 131.03 89.3641 130.864L93.0743 128.721C93.3775 128.551 93.7441 128.535 94.0609 128.679L99.0881 131.582C99.3383 131.728 99.31 131.983 99.0173 132.153L95.3071 134.291C95.0038 134.462 94.6373 134.478 94.3205 134.334Z" fill="#173D7A"/>
<path d="M124.898 151.988L119.871 149.085C119.616 148.939 119.649 148.684 119.942 148.514L123.652 146.376C123.954 146.205 124.319 146.189 124.634 146.333L129.661 149.236C129.916 149.383 129.883 149.637 129.59 149.803L125.88 151.955C125.577 152.123 125.212 152.135 124.898 151.988V151.988Z" fill="#173D7A"/>
<path d="M101.326 138.379L96.2988 135.476C96.0486 135.33 96.0769 135.075 96.3696 134.905L100.08 132.767C100.383 132.596 100.75 132.58 101.066 132.724L106.098 135.627C106.349 135.774 106.315 136.029 106.028 136.194L102.322 138.337C102.016 138.511 101.645 138.527 101.326 138.379Z" fill="#173D7A"/>
<path d="M101.099 132.743L122.954 145.347C123.228 145.507 123.228 145.757 122.954 145.913L119.178 148.099C118.869 148.254 118.505 148.254 118.196 148.099L96.3359 135.481L101.099 132.743Z" fill="#173D7A"/>
<path d="M143.144 159.767L146.642 161.788C146.85 161.91 146.826 162.118 146.585 162.26L145.07 163.138C144.821 163.275 144.522 163.287 144.263 163.171L140.76 161.15C140.553 161.028 140.576 160.82 140.817 160.678L142.337 159.8C142.586 159.663 142.885 159.651 143.144 159.767V159.767Z" fill="#173D7A"/>
<path d="M138.248 156.945L141.746 158.965C141.954 159.083 141.93 159.291 141.689 159.437L140.174 160.31C139.926 160.449 139.626 160.462 139.367 160.343L135.864 158.323C135.657 158.205 135.685 157.997 135.921 157.851L137.441 156.978C137.689 156.836 137.99 156.824 138.248 156.945Z" fill="#173D7A"/>
<path d="M133.39 154.141L136.893 156.161C137.1 156.279 137.072 156.492 136.836 156.633L135.316 157.507C135.068 157.647 134.769 157.661 134.509 157.544L131.006 155.519C130.803 155.401 130.827 155.194 131.068 155.047L132.583 154.169C132.833 154.034 133.132 154.023 133.39 154.141Z" fill="#173D7A"/>
<path d="M140.929 155.396L144.427 157.417C144.635 157.535 144.611 157.743 144.37 157.889L142.85 158.762C142.604 158.904 142.305 158.916 142.048 158.795L138.545 156.775C138.338 156.657 138.361 156.449 138.602 156.303L140.122 155.43C140.37 155.29 140.67 155.278 140.929 155.396V155.396Z" fill="#173D7A"/>
<path d="M134.551 71.8593L130.331 69.4236C129.92 69.1506 129.716 68.6556 129.816 68.1727V68.1727C129.838 67.9704 129.963 67.794 130.147 67.7057C130.33 67.6174 130.546 67.6298 130.718 67.7384L134.938 70.1788C135.349 70.4493 135.553 70.9434 135.452 71.425V71.425C135.432 71.6286 135.308 71.8071 135.124 71.8959C134.939 71.9846 134.722 71.9708 134.551 71.8593V71.8593Z" fill="#D4ECFF"/>
<path d="M144.605 77.6605L138.379 74.0682C137.969 73.7944 137.766 73.3001 137.864 72.8173V72.8173C137.887 72.6144 138.013 72.4378 138.198 72.3503C138.382 72.2629 138.599 72.277 138.771 72.3878L144.992 75.98C145.402 76.2538 145.605 76.7481 145.507 77.2309V77.2309C145.485 77.4336 145.36 77.6107 145.176 77.6984C144.992 77.7861 144.776 77.7717 144.605 77.6605V77.6605Z" fill="#D4ECFF"/>
<path d="M127.197 91.5575L122.977 89.1171C122.566 88.8466 122.362 88.3525 122.463 87.8709V87.8709C122.483 87.6673 122.607 87.4888 122.791 87.4C122.976 87.3113 123.193 87.3251 123.364 87.4366L127.584 89.8771C127.995 90.1476 128.199 90.6416 128.099 91.1232V91.1232C128.077 91.3255 127.952 91.502 127.769 91.5902C127.585 91.6785 127.369 91.6662 127.197 91.5575V91.5575Z" fill="#D4ECFF"/>
<path d="M136.156 96.7262L129.934 93.1293C129.523 92.8588 129.319 92.3647 129.42 91.8831V91.8831C129.44 91.6795 129.564 91.501 129.748 91.4122C129.933 91.3235 130.15 91.3373 130.321 91.4488L136.543 95.041C136.954 95.314 137.157 95.8091 137.057 96.292V96.292C137.038 96.4955 136.913 96.674 136.729 96.7628C136.545 96.8516 136.327 96.8377 136.156 96.7262V96.7262Z" fill="#D4ECFF"/>
<path d="M122.104 68.6588L119.465 67.1388C119.055 66.865 118.852 66.3706 118.95 65.8879V65.8879C118.973 65.685 119.099 65.5083 119.284 65.4209C119.468 65.3334 119.685 65.3476 119.857 65.4583L122.491 66.9877C122.901 67.2607 123.105 67.7557 123.005 68.2386V68.2386C122.981 68.4397 122.855 68.614 122.671 68.6995C122.488 68.785 122.273 68.7696 122.104 68.6588V68.6588Z" fill="#D4ECFF"/>
<path d="M130.227 77.3444L122.174 72.6948C121.768 72.4181 121.571 71.9238 121.673 71.4439V71.4439C121.693 71.2403 121.818 71.0618 122.002 70.973C122.186 70.8843 122.403 70.8981 122.575 71.0096L130.628 75.6639C131.025 75.9404 131.216 76.4281 131.114 76.9007V76.9007C131.095 77.1014 130.974 77.278 130.793 77.3682C130.613 77.4584 130.399 77.4494 130.227 77.3444V77.3444Z" fill="#D4ECFF"/>
<path d="M123.184 81.2575L120.545 79.7328C120.135 79.459 119.932 78.9647 120.03 78.4819V78.4819C120.052 78.2781 120.177 78.1001 120.362 78.0115C120.547 77.923 120.764 77.9367 120.937 78.0476L123.571 79.5723C123.982 79.8444 124.186 80.3402 124.085 80.8232V80.8232C124.065 81.0268 123.941 81.2053 123.757 81.2941C123.572 81.3828 123.355 81.369 123.184 81.2575Z" fill="#D4ECFF"/>
<path d="M137.51 105.492L130.472 101.447C130.06 101.175 129.856 100.679 129.957 100.196V100.196C129.978 99.9931 130.104 99.816 130.288 99.7283C130.472 99.6406 130.688 99.655 130.859 99.7662L137.897 103.807C138.307 104.08 138.512 104.574 138.416 105.058V105.058C138.395 105.262 138.269 105.44 138.084 105.528C137.9 105.617 137.682 105.603 137.51 105.492Z" fill="#D4ECFF"/>
<path d="M120.61 87.7576L118.92 86.7804C118.51 86.5075 118.306 86.0124 118.406 85.5295V85.5295C118.427 85.3268 118.552 85.1497 118.736 85.062C118.92 84.9744 119.137 84.9887 119.308 85.1L121.002 86.0724C121.412 86.3462 121.615 86.8405 121.517 87.3233V87.3233C121.495 87.5271 121.37 87.7051 121.185 87.7936C121 87.8822 120.783 87.8685 120.61 87.7576V87.7576Z" fill="#D4ECFF"/>
<path d="M119.399 95.0365L117.299 93.8234C116.888 93.55 116.683 93.0561 116.779 92.5724V92.5724C116.802 92.3695 116.928 92.1929 117.113 92.1054C117.297 92.018 117.514 92.0322 117.686 92.1429L119.786 93.356C120.197 93.6265 120.401 94.1206 120.301 94.6022V94.6022C120.281 94.8058 120.156 94.9843 119.972 95.0731C119.788 95.1618 119.571 95.148 119.399 95.0365V95.0365Z" fill="#D4ECFF"/>
<path d="M127.575 99.7568L122.034 96.5563C121.623 96.2834 121.419 95.7883 121.519 95.3054V95.3054C121.54 95.1027 121.666 94.9256 121.85 94.8379C122.034 94.7502 122.25 94.7646 122.421 94.8759L127.963 98.0716C128.372 98.3454 128.575 98.8397 128.477 99.3225V99.3225C128.455 99.5247 128.33 99.7012 128.147 99.7895C127.963 99.8778 127.747 99.8654 127.575 99.7568V99.7568Z" fill="#D4ECFF"/>
<path d="M120.464 99.6434L116.48 97.3446C116.071 97.0708 115.867 96.5765 115.966 96.0937V96.0937C115.989 95.8908 116.115 95.7141 116.3 95.6267C116.484 95.5392 116.701 95.5534 116.872 95.6641L120.852 97.963C121.263 98.235 121.467 98.7309 121.366 99.2139V99.2139C121.345 99.4166 121.22 99.5937 121.036 99.6814C120.852 99.7691 120.635 99.7547 120.464 99.6434V99.6434Z" fill="#D4ECFF"/>
<path d="M143.554 108.999L140.995 107.522C140.583 107.25 140.38 106.754 140.481 106.271V106.271C140.502 106.068 140.627 105.891 140.811 105.803C140.995 105.716 141.211 105.73 141.382 105.841L143.941 107.319C144.352 107.591 144.556 108.087 144.455 108.57V108.57C144.434 108.773 144.309 108.95 144.125 109.037C143.941 109.125 143.724 109.111 143.554 108.999V108.999Z" fill="#D4ECFF"/>
<path d="M133.004 86.9173L125.965 82.8531C125.563 82.5822 125.361 82.0976 125.451 81.621V81.621C125.474 81.4181 125.6 81.2415 125.785 81.154C125.969 81.0666 126.186 81.0807 126.357 81.1915L133.395 85.2557C133.806 85.5287 134.01 86.0238 133.91 86.5067V86.5067C133.884 86.7075 133.756 86.8806 133.571 86.9643C133.386 87.0479 133.172 87.0301 133.004 86.9173V86.9173Z" fill="#D4ECFF"/>
<path d="M133.63 83.2968L121.357 76.2162C120.947 75.9428 120.742 75.4489 120.838 74.9653V74.9653C120.859 74.7615 120.985 74.5835 121.17 74.4949C121.354 74.4064 121.572 74.4201 121.744 74.531L134.017 81.6116C134.428 81.885 134.633 82.3789 134.536 82.8625V82.8625C134.515 83.0663 134.389 83.2443 134.205 83.3329C134.02 83.4214 133.802 83.4077 133.63 83.2968V83.2968Z" fill="#D4ECFF"/>
<path d="M126.776 87.3232L119.733 83.259C119.322 82.986 119.119 82.4909 119.218 82.0081V82.0081C119.24 81.8053 119.365 81.6282 119.549 81.5406C119.733 81.4529 119.949 81.4673 120.12 81.5785L127.163 85.6428C127.574 85.9133 127.778 86.4073 127.677 86.889V86.889C127.658 87.0925 127.533 87.2711 127.349 87.3598C127.165 87.4486 126.947 87.4347 126.776 87.3232V87.3232Z" fill="#D4ECFF"/>
<path d="M138.334 90.0045L135.775 88.527C135.365 88.2536 135.16 87.7597 135.256 87.2761V87.2761C135.279 87.0732 135.405 86.8965 135.589 86.8091C135.774 86.7216 135.991 86.7358 136.162 86.8465L138.721 88.324C139.13 88.5954 139.334 89.0887 139.235 89.5702V89.5702C139.213 89.7724 139.088 89.9489 138.905 90.0372C138.721 90.1255 138.506 90.1131 138.334 90.0045V90.0045Z" fill="#D4ECFF"/>
<path d="M163.582 88.6167L148.434 79.8745C148.023 79.6015 147.82 79.1065 147.92 78.6236V78.6236C147.939 78.42 148.064 78.2415 148.248 78.1527C148.432 78.064 148.65 78.0778 148.821 78.1893L163.969 86.9362C164.38 87.2092 164.583 87.7042 164.483 88.1871V88.1871C164.462 88.3898 164.337 88.5669 164.153 88.6546C163.969 88.7423 163.753 88.7279 163.582 88.6167V88.6167Z" fill="#D4ECFF"/>
<path d="M126.574 95.1876L118.11 90.3019C117.699 90.029 117.496 89.5339 117.595 89.051V89.051C117.617 88.8483 117.742 88.6712 117.926 88.5835C118.11 88.4958 118.326 88.5102 118.497 88.6215L126.961 93.5071C127.372 93.7776 127.576 94.2717 127.475 94.7533V94.7533C127.455 94.9569 127.331 95.1354 127.147 95.2241C126.962 95.3129 126.745 95.299 126.574 95.1876V95.1876Z" fill="#D4ECFF"/>
<path d="M126.503 67.2096L120.281 63.6174C119.877 63.3403 119.681 62.8455 119.786 62.3665V62.3665C119.807 62.1637 119.932 61.9866 120.116 61.899C120.3 61.8113 120.517 61.8257 120.687 61.9369L126.909 65.5291C127.321 65.8012 127.525 66.297 127.423 66.78V66.78C127.406 66.9891 127.278 67.1728 127.088 67.2616C126.898 67.3503 126.674 67.3305 126.503 67.2096Z" fill="#D4ECFF"/>
<path d="M119.356 102.995L112.153 98.8317C111.741 98.5591 111.536 98.0645 111.633 97.5807V97.5807C111.656 97.3778 111.782 97.2012 111.967 97.1137C112.151 97.0263 112.368 97.0405 112.54 97.1512L119.743 101.315C120.154 101.586 120.359 102.078 120.262 102.561V102.561C120.241 102.765 120.115 102.943 119.93 103.031C119.746 103.12 119.528 103.106 119.356 102.995V102.995Z" fill="#D4ECFF"/>
<path d="M167.738 129.986L163.518 127.551C163.108 127.277 162.905 126.783 163.003 126.3V126.3C163.026 126.097 163.152 125.92 163.337 125.833C163.521 125.745 163.738 125.759 163.909 125.87L168.125 128.306C168.535 128.577 168.741 129.07 168.644 129.552V129.552C168.622 129.756 168.497 129.934 168.312 130.022C168.127 130.111 167.91 130.097 167.738 129.986V129.986Z" fill="#D4ECFF"/>
<path d="M170.767 115.773L162.709 111.124C162.299 110.85 162.096 110.356 162.194 109.873V109.873C162.217 109.67 162.344 109.493 162.528 109.406C162.713 109.318 162.929 109.332 163.101 109.443L171.154 114.093C171.565 114.365 171.769 114.861 171.668 115.344V115.344C171.647 115.546 171.522 115.724 171.338 115.811C171.154 115.899 170.937 115.884 170.767 115.773Z" fill="#D4ECFF"/>
<path d="M163.724 119.686L161.09 118.166C160.68 117.893 160.476 117.398 160.576 116.916V116.916C160.597 116.713 160.722 116.536 160.906 116.448C161.09 116.36 161.307 116.375 161.477 116.486L164.116 118.006C164.526 118.28 164.729 118.774 164.631 119.257V119.257C164.608 119.46 164.482 119.636 164.297 119.724C164.113 119.811 163.896 119.797 163.724 119.686Z" fill="#D4ECFF"/>
<path d="M161.156 126.186L159.462 125.209C159.054 124.934 158.852 124.441 158.947 123.958V123.958C158.97 123.756 159.096 123.579 159.281 123.491C159.465 123.404 159.682 123.418 159.854 123.529L161.543 124.506C161.954 124.776 162.158 125.271 162.058 125.752V125.752C162.038 125.956 161.914 126.134 161.729 126.223C161.545 126.312 161.328 126.298 161.156 126.186Z" fill="#D4ECFF"/>
<path d="M173.534 125.351L166.491 121.273C166.08 121.002 165.876 120.508 165.976 120.026V120.026C165.996 119.823 166.121 119.644 166.305 119.556C166.489 119.467 166.707 119.481 166.878 119.592L173.921 123.661C174.332 123.932 174.536 124.426 174.435 124.907V124.907C174.416 125.111 174.292 125.291 174.109 125.381C173.925 125.471 173.707 125.46 173.534 125.351Z" fill="#D4ECFF"/>
<path d="M174.176 121.745L161.903 114.664C161.492 114.391 161.289 113.896 161.388 113.413V113.413C161.41 113.21 161.535 113.033 161.719 112.946C161.903 112.858 162.119 112.872 162.29 112.984L174.563 120.064C174.974 120.335 175.178 120.829 175.078 121.31V121.31C175.058 121.514 174.933 121.692 174.749 121.781C174.565 121.87 174.347 121.856 174.176 121.745V121.745Z" fill="#D4ECFF"/>
<path d="M167.318 125.752L160.28 121.688C159.869 121.415 159.666 120.92 159.765 120.437V120.437C159.786 120.234 159.912 120.057 160.096 119.97C160.28 119.882 160.496 119.896 160.667 120.007L167.705 124.072C168.116 124.344 168.322 124.839 168.224 125.323V125.323C168.201 125.526 168.075 125.702 167.891 125.79C167.706 125.877 167.49 125.863 167.318 125.752Z" fill="#D4ECFF"/>
<path d="M167.114 133.617L158.65 128.731C158.241 128.457 158.037 127.963 158.136 127.48V127.48C158.157 127.277 158.282 127.1 158.466 127.012C158.65 126.925 158.867 126.939 159.037 127.05L167.506 131.936C167.914 132.211 168.117 132.704 168.02 133.187V133.187C167.997 133.39 167.871 133.567 167.687 133.654C167.502 133.741 167.286 133.727 167.114 133.617Z" fill="#D4ECFF"/>
</g>
</svg>
