<svg width="902" height="868" viewBox="0 0 902 868" fill="none" xmlns="http://www.w3.org/2000/svg">
<path fill-rule="evenodd" clip-rule="evenodd" d="M451.016 867.765C699.226 867.765 901.517 665.162 901.517 416.883C901.517 168.603 699.226 -34 451.016 -34C202.947 -34 0.516113 168.603 0.516113 416.883C0.516113 665.302 202.947 867.765 451.016 867.765Z" fill="#1E3853" fill-opacity="0.2"/>
<path fill-rule="evenodd" clip-rule="evenodd" d="M451.017 807.428C665.768 807.428 840.9 632.147 840.9 417.214C840.9 202.281 665.768 27 451.017 27C236.267 27 61.1343 202.281 61.1343 417.214C61.1343 632.147 236.267 807.428 451.017 807.428Z" fill="#223D5A" fill-opacity="0.2"/>
<path fill-rule="evenodd" clip-rule="evenodd" d="M451.017 712.836C613.83 712.836 746.684 579.869 746.684 416.918C746.684 253.967 613.83 121 451.017 121C288.204 121 155.35 253.967 155.35 416.918C155.35 579.869 288.204 712.836 451.017 712.836Z" fill="#274768" fill-opacity="0.2"/>
<path fill-rule="evenodd" clip-rule="evenodd" d="M451.015 618.926C562.45 618.926 653.306 527.992 653.306 416.463C653.306 304.933 562.45 214 451.015 214C339.58 214 248.724 304.933 248.724 416.463C248.724 527.992 339.58 618.926 451.015 618.926Z" fill="#304F71" fill-opacity="0.2"/>
<path fill-rule="evenodd" clip-rule="evenodd" d="M451.015 564.358C532.352 564.358 598.569 497.944 598.569 416.679C598.569 335.413 532.352 269 451.015 269C369.679 269 303.461 335.413 303.461 416.679C303.461 497.944 369.679 564.358 451.015 564.358Z" fill="#3A597B" fill-opacity="0.2"/>
<path fill-rule="evenodd" clip-rule="evenodd" d="M451.016 532.833C514.853 532.833 567.071 480.711 567.071 416.679C567.071 352.648 514.993 300.526 451.016 300.526C387.179 300.526 334.961 352.648 334.961 416.679C334.961 480.711 387.179 532.833 451.016 532.833Z" fill="#4D6A8A" fill-opacity="0.2"/>
<path fill-rule="evenodd" clip-rule="evenodd" d="M451.012 507.332C500.849 507.332 541.588 466.699 541.588 416.679C541.588 366.659 500.989 326.026 451.012 326.026C401.174 326.026 360.436 366.799 360.436 416.679C360.436 466.559 401.174 507.332 451.012 507.332Z" fill="#5E7A9A" fill-opacity="0.2"/>
<path fill-rule="evenodd" clip-rule="evenodd" d="M451.012 495.142C494.13 495.142 529.408 459.974 529.408 416.679C529.408 373.525 494.27 338.216 451.012 338.216C407.894 338.216 372.615 373.525 372.615 416.679C372.615 459.834 407.894 495.142 451.012 495.142Z" fill="white"/>
</svg>
