<svg className="moonLayer"  width="682" height="682" viewBox="0 0 682 682" fill="none" xmlns="http://www.w3.org/2000/svg">
  <path fill-rule="evenodd" clip-rule="evenodd" d="M340.556 681.691c187.634 0 340.557-153.158 340.557-340.846C681.113 153.158 528.19 0 340.556 0 153.028 0 0 153.158 0 340.845c0 187.794 153.028 340.846 340.556 340.846Z" fill="#1E3853" fill-opacity=".2"/>
  <path fill-rule="evenodd" clip-rule="evenodd" d="M340.557 635.828c162.341 0 294.732-132.504 294.732-294.983 0-162.478-132.391-294.9822-294.732-294.9822-162.341 0-294.7328 132.5042-294.7328 294.9822 0 162.479 132.3918 294.983 294.7328 294.983Z" fill="#223D5A" fill-opacity=".2"/>
  <path fill-rule="evenodd" clip-rule="evenodd" d="M340.557 564.545c123.078 0 223.51-100.516 223.51-223.699s-100.432-223.7-223.51-223.7c-123.079 0-223.51 100.517-223.51 223.7 0 123.183 100.431 223.699 223.51 223.699Z" fill="#274768" fill-opacity=".2"/>
  <path fill-rule="evenodd" clip-rule="evenodd" d="M340.555 493.898c84.24 0 152.922-68.742 152.922-153.053 0-84.311-68.682-153.052-152.922-153.052-84.239 0-152.922 68.741-152.922 153.052 0 84.311 68.683 153.053 152.922 153.053Z" fill="#304F71" fill-opacity=".2"/>
  <path fill-rule="evenodd" clip-rule="evenodd" d="M340.555 452.483c61.487 0 111.543-50.205 111.543-111.638 0-61.432-50.056-111.637-111.543-111.637-61.486 0-111.543 50.205-111.543 111.637 0 61.433 50.057 111.638 111.543 111.638Z" fill="#3A597B" fill-opacity=".2"/>
  <path fill-rule="evenodd" clip-rule="evenodd" d="M340.556 428.652c48.258 0 87.732-39.402 87.732-87.807 0-48.404-39.368-87.806-87.732-87.806-48.258 0-87.732 39.402-87.732 87.806 0 48.405 39.474 87.807 87.732 87.807Z" fill="#4D6A8A" fill-opacity=".2"/>
  <path fill-rule="evenodd" clip-rule="evenodd" d="M340.553 409.375c37.675 0 68.471-30.717 68.471-68.529 0-37.813-30.69-68.53-68.471-68.53-37.675 0-68.471 30.823-68.471 68.53s30.796 68.529 68.471 68.529Z" fill="#5E7A9A" fill-opacity=".2"/>
  <path fill-rule="evenodd" clip-rule="evenodd" d="M340.553 400.16c32.595 0 59.264-26.586 59.264-59.314 0-32.623-26.563-59.315-59.264-59.315-32.595 0-59.264 26.692-59.264 59.315 0 32.622 26.669 59.314 59.264 59.314Z" fill="#fff"/>
</svg>
