<svg width="68" height="68" fill="none" xmlns="http://www.w3.org/2000/svg">
  <path fill-rule="evenodd" clip-rule="evenodd" d="M63.0403 37.6166c-2.2485 16.2486-17.2961 27.6279-33.5584 25.3775-16.2624-2.2504-27.65434-17.2884-25.40585-33.537C6.32454 13.2085 21.3721 1.82936 37.6345 4.07976 53.8968 6.33015 65.2888 21.368 63.0403 37.6166Z" fill="#366"/>
  <path fill-rule="evenodd" clip-rule="evenodd" d="M55.3375 53.8584c4.1296-4.343 6.8305-9.9522 7.7009-16.242C65.2869 21.3678 53.895 6.32991 37.6326 4.07951c-4.5115-.6243-8.9582-.17122-13.1013 1.17852-4.1297 4.34305-6.9355 9.93757-7.8058 16.22737-2.2485 16.2486 9.1434 31.2865 25.4058 33.5369 4.6164.6388 9.0631.1859 13.2062-1.1639ZM13.1019 38.3985c-.1451 1.0483.5637 2.1079 1.7178 2.2676 1.0492.1452 2.124-.6676 2.2691-1.7159.1596-1.1531-.6687-2.1225-1.7178-2.2676-1.1396-.2646-2.1095.5628-2.2691 1.7159Zm6.6962 13.4265c-.058.4193.2132.7775.6329.8355.4197.0581.778-.2129.836-.6322.058-.4193-.3181-.7919-.6329-.8354-.3148-.0436-.7779.2128-.836.6321Z" fill="#699"/>
  <path fill-rule="evenodd" clip-rule="evenodd" d="M21.2363 21.3615c-.2321 1.6773.9287 3.3336 2.7124 3.5804 1.7836.2469 3.3506-1.032 3.5827-2.7093.2466-1.7821-.9287-3.3336-2.7123-3.5804-1.7837-.2469-3.3362.9272-3.5828 2.7093Zm23.3938 12.532c-.058.4193.2132.7775.6329.8355.4197.0581.778-.2129.836-.6322.058-.4193-.2132-.7773-.6329-.8354-.4197-.0581-.778.2128-.836.6321Zm-20.0158 2.4653c-.058.4193.2132.7773.6329.8354.4196.058.7779-.2128.8359-.6322.0581-.4193-.2132-.7773-.6329-.8354-.4196-.058-.7924.3177-.8359.6322Zm8.7632 10.0802c-.058.4193.2132.7773.6329.8354.4197.058.7779-.2128.836-.6322.058-.4193-.3182-.7919-.6329-.8355-.3148-.0435-.7925.3178-.836.6323Zm15.0881-2.3994c-.1161.8387.4264 1.5548 1.2657 1.6709.8394.1162 1.6608-.4112 1.7769-1.2498.116-.8387-.5313-1.5693-1.3707-1.6855-.8393-.1161-1.5559.4258-1.6719 1.2644Zm9.5772-12.0293c-.116.8386.4119 1.6595 1.2513 1.7757.8393.1161 1.6753-.516 1.7914-1.3547.116-.8386-.5314-1.5693-1.3707-1.6854-.8394-.1161-1.5559.4257-1.672 1.2644Zm-7.5211 19.5788c-.145 1.0483.6687 2.1225 1.7179 2.2677 1.1541.1597 2.124-.6676 2.2691-1.7159.1595-1.1532-.5638-2.108-1.7179-2.2677-1.0492-.1452-2.124.6676-2.2691 1.7159ZM28.473 41.7004c-.1451 1.0483.6686 2.1225 1.7178 2.2677 1.1541.1597 2.124-.6677 2.2691-1.716.1596-1.1531-.6686-2.1224-1.7178-2.2676-1.0347-.25-2.1095.5628-2.2691 1.7159Zm5.6278-27.5331c-.1596 1.1532.6686 2.1225 1.7178 2.2677s2.1095-.5628 2.2691-1.716c.1596-1.1531-.6686-2.1224-1.7178-2.2676s-2.124.6676-2.2691 1.7159Z" fill="#366"/>
</svg>
