<svg width="109" height="110" fill="none" xmlns="http://www.w3.org/2000/svg">
  <path fill-rule="evenodd" clip-rule="evenodd" d="M54.6287.222327C24.7853.099816.34488 24.3609.222265 54.2297.0996497 84.0984 24.34 108.559 54.1834 108.682c29.8434.122 54.2836-24.1387 54.4066-54.0075C108.712 24.9117 84.4721.344839 54.6287.222327Z" fill="#69F"/>
  <path fill-rule="evenodd" clip-rule="evenodd" d="M16.9918 93.806c-2.0029-1.9147-3.8991-4.0409-5.6891-6.2726 4.1278-.089 8.255-.072 12.4881-.0546 26.4569.1086 50.8975 1.5859 70.4665 3.8905-.7443.8443-1.4881 1.5827-2.3382 2.4266-10.5806-.5731-21.9033-.8314-33.4385-.8788-14.7101-.0603-28.6806.2001-41.4888.8889ZM4.6817 76.2788c-.31445-.7427-.62847-1.5914-.94291-2.3341C17.7711 58.644 48.6352 42.1414 83.7046 32.4349c6.2508-1.6691 12.2891-3.1271 18.1144-4.2683 2.416 4.3526 4.196 9.0204 5.34 14.0033-11.8564.7986-25.7298 3.1778-40.5626 7.2478-23.9445 6.5746-45.9971 16.3345-61.9147 26.8611ZM1.8646 40.6784c.108-.5291.32226-1.1638.53609-1.6925C13.6397 33.842 26.1461 29.3388 39.284 25.6855c21.614-6.0546 41.0959-8.3048 55.5904-7.292 2.1065 2.4448 4.1064 5.101 5.7886 7.8618-14.1616-4.8245-39.9888-3.6595-69.867 4.6913-10.1708 2.7122-19.815 6.0621-28.9314 9.7318Zm18.0005-28.1006c4.6725-3.89988 10.0824-6.9493 15.9116-9.04376 14.3921.16501 28.0422.64473 40.6326 1.43785C82.536 7.75094 88.0238 11.4806 92.6611 16.1601c-19.1465-2.091-42.6351-3.4585-67.9279-3.5624l-4.8681-.0199Z" fill="#66BDFF"/>
  <path fill-rule="evenodd" clip-rule="evenodd" d="M15.4042 16.6906C25.2883 6.45705 39.1778.158899 54.6287.222327 84.5779.345273 108.712 24.8058 108.59 54.6745c-.123 29.9747-24.5632 54.1295-54.4066 54.0075l17.8278-11.7899-2.9423-5.0962 4.1694-10.2571-3.3313-13.4654-6.651-3.9463-.8157-7.5236 6.0643-7.8132 11.6328 2.0602.5313-.5274 7.4623-13.2092-5.3577-9.6607-.5287-.1081-14.6016-.6954-9.6551 5.9977-3.6857-4.4637-4.5471-.8661 1.1833-4.6555-.635-.0026-11.108-.9989c-2.1209 1.0505-.6363.3151-.8488.5261l-7.1226 7.8088 9.8171 6.0777-2.1374 5.0753-9.7496 3.2435-4.4135-7.6443 2.7798-6.8734-3.2624-4.4619 9.133-7.6947 3.5933 1.1799 1.5983-2.6414-6.3336-3.945-10.2883 5.5714-6.5565-1.192Zm4.4297 29.4638 4.7587.8669.0928 3.1779-4.0262 1.1486-.2121.1051-2.6374-2.0234.3227-1.2696 1.7015-2.0055ZM76.8374 29.759l.8432.8508-.9607 2.0086-.9494-.7453 1.0669-2.1141ZM64.1913 42.5234l2.1118 1.1738 1.168-.9486.0074-1.8005-2.1131-.8561-2.1274 2.6393.9533-.2079Zm-19.792 52.031 1.2603 2.3354-.9567 1.0553-1.7978-.3252.0113-2.7538 1.4829-.3117ZM55.9989 78.926l2.1056 2.6566-1.485.8412-2.114-.6441-.3088-2.1197 1.8022-.734Zm-12.3536-6.9355 10.1607-.276 2.1392-5.4991-4.1125-3.6181-5.4111 3.3672.834 3.0751-2.9658.6233-.6445 2.3276ZM79.8624 92.052l5.085-1.2501 1.8251-6.3477-6.9711-3.3121-3.302 5.1765 3.363 5.7334Zm10.1889-32.8991.5361-1.6924-1.6881-1.278-.8562 2.3267 2.0082.6437Zm-1.6633-7.3152 5.497 1.5054 2.6652-4.7554-4.5371-3.3021-6.6902 5.5862 3.0651.9659ZM77.22 65.4554l-3.2819.3043.1145-2.1179 3.069.0126-.0074 1.8006.1058.0004Zm7.7917 9.6706 3.5977.1208.01-2.4361-3.9108-1.1812.3031 3.4965Z" fill="#426EC7"/>
  <path fill-rule="evenodd" clip-rule="evenodd" d="M19.8681 12.5775c4.6725-3.89981 10.0823-6.94924 15.9115-9.04369 14.3922.165 28.0422.64473 40.6327 1.43784C82.539 7.75071 88.0268 11.4804 92.6641 16.1599c-17.1363-1.9769-37.6625-3.1204-59.8855-3.4234l-.739-.4268-.7425.4207-6.6672-.0274c-1.4811-.112-3.0686-.1185-4.7618-.1255Zm74.9034 5.8153c2.1066 2.4448 4.1064 5.101 5.7885 7.8618-11.0968-3.7527-29.1934-3.827-50.7992.2151l.8614-3.5976c17.0548-3.955 32.3001-5.3753 44.1493-4.4793Zm6.9455 9.6672c2.416 4.3526 4.196 9.0203 5.339 14.0032-7.3039.4997-15.2454 1.5263-23.8244 3.1858l4.5841-8.137-2.836-5.2017c5.8266-1.459 11.3349-2.7074 16.7373-3.8503Zm-7.4568 63.3091c-.7442.8443-1.4881 1.5827-2.3382 2.4266-7.1949-.3473-14.602-.5896-22.2211-.7268l-.6307-1.0618 1.0696-2.7495c2.8565.2236 5.6071.4467 8.252.6694l1.3662 2.3358 5.0849-1.2501.1076-.4232c3.2802.1194 6.3483.3438 9.3097.7796ZM33.3536 27.3557l-2.3386 2.5324.9498.6395c-.4237.1041-.8475.2083-1.3771.3121-1.4833.4175-2.8608.8356-4.3441 1.2532l.962-2.3263-.3157-.425c2.3308-.626 4.3446-1.3591 6.4637-1.9859Zm30.8399 15.1671 2.1118 1.1738 1.168-.9485.0074-1.8006-2.113-.856-2.1275 2.6392.9533-.2079Z" fill="#2F83C4"/>
  <path fill-rule="evenodd" clip-rule="evenodd" d="M54.185 108.787C24.2358 108.664.100777 84.3097.223827 54.335.323397 30.0799 16.2819 9.59714 38.3228 2.69695 18.3941 10.665 4.34487 30.0965 4.25139 52.8687 4.12834 82.8434 28.2633 107.198 58.2125 107.321c5.7147.023 11.1154-.802 16.3075-2.369-6.2543 2.516-13.2445 3.864-20.335 3.835Z" fill="#366"/>
</svg>
