<svg width="150" height="150" fill="none" xmlns="http://www.w3.org/2000/svg">
  <path fill-rule="evenodd" clip-rule="evenodd" d="M74.5029 149.027c41.0611 0 74.5031-33.47 74.5031-74.5664C149.006 33.4702 115.564 0 74.5029 0 33.5473 0 .105469 33.4702.105469 74.4606c0 41.0964 33.441831 74.5664 74.397431 74.5664Z" fill="#F66"/>
  <path fill-rule="evenodd" clip-rule="evenodd" d="M74.5037 0c41.1673 0 74.5033 33.3643 74.5033 74.4606 0 41.2024-33.336 74.5664-74.5033 74.5664-7.5138-2.012-23.2823-3.283-20.7424-10.274 1.2699-3.495 11.2179 1.377 21.0599 2.224 13.1228.954 26.8808-1.694 28.4678-5.931 2.222-6.355-13.546-2.118-31.7486-3.072-21.589-1.165-46.3529-7.52-45.7179-17.582.5292-7.626 22.224 2.224 43.6014 4.131 21.8007 2.012 43.2841-4.025 44.4481-16.735 1.164-12.9225-19.8958-9.639-44.2364-10.1686-22.7532-.5296-51.6445-8.2617-52.5969-22.0311-1.0583-14.8285 22.224-8.6852 44.2364-9.1089 22.224-.4237 43.2839-7.5202 39.3679-22.3488-2.1163-8.0498-15.3448-2.9657-31.7483-2.2243-16.5093.7414-36.2992-2.7539-37.5691-9.5326C28.9973 13.6635 58.841 1.58878 74.5037 0Z" fill="#C43F57"/>
  <path fill-rule="evenodd" clip-rule="evenodd" d="M74.5033 0c2.4341 0 4.8682.105938 7.1964.317775h-1.6934C38.839.317775 5.50316 33.682 5.50316 74.8843c0 38.7657 29.52614 70.5417 67.30694 74.2487C32.4894 148.286 0 115.239 0 74.5665.105829 33.3643 33.4418 0 74.5033 0Z" fill="#515151" fill-opacity=".2"/>
</svg>
