<svg width="33" height="33" fill="none" xmlns="http://www.w3.org/2000/svg">
  <path fill-rule="evenodd" clip-rule="evenodd" d="M16.1917 32.411c8.8896 0 16.1917-7.3084 16.1917-16.2055C32.3834 7.30837 25.0813 0 16.1917 0 7.30214 0 0 7.30837 0 16.2055 0 25.2086 7.30214 32.411 16.1917 32.411Z" fill="#7C1370"/>
  <path fill-rule="evenodd" clip-rule="evenodd" d="M25.0811 2.6479c4.4447 2.96571 7.3021 7.9439 7.3021 13.5576 0 9.003-7.3022 16.2055-16.1918 16.2055-.6349 0-1.2699 0-1.9049-.106-4.44476-2.8598-7.30212-7.9438-7.30212-13.5575 0-8.89714 7.30222-16.20551 16.19182-16.20551.6349 0 1.2699.10591 1.9049.10591Z" fill="#BE2385"/>
</svg>
