<svg width="555" height="562" viewBox="0 0 555 562" fill="none" xmlns="http://www.w3.org/2000/svg">
<ellipse cx="277.5" cy="280.5" rx="277.5" ry="280.5" fill="#293163"/>
<ellipse cx="283.5" cy="280.5" rx="271.5" ry="273.5" fill="#321791"/>
<ellipse cx="283.5" cy="280.5" rx="271.5" ry="273.5" fill="#321791"/>
<path fill-rule="evenodd" clip-rule="evenodd" d="M277.572 0C402.238 0 507.749 82.6163 542.249 196.161H13C47.3943 82.6163 152.8 0 277.572 0V0Z" fill="#293163"/>
<path fill-rule="evenodd" clip-rule="evenodd" d="M518.541 140.977C528.278 158.242 536.321 176.778 542.141 196.161H25.0625C63.3725 89.395 165.497 13.0278 285.295 13.0278C383.398 13.0278 469.437 64.0805 518.541 140.977Z" fill="#321791"/>
<path fill-rule="evenodd" clip-rule="evenodd" d="M502.667 138.012C509.969 150.934 515.896 181.756 520.34 196.161H134.913C154.385 141.931 180.207 161.737 233.016 139.283C257.674 128.797 300.429 59.6319 328.897 59.6319C356.2 59.6319 382.869 78.6973 406.681 88.3359C446.684 104.541 479.702 102.105 502.667 138.012V138.012ZM213.649 43.6383C215.872 43.6383 217.777 45.4389 217.777 47.875C217.777 50.2052 215.872 52.1118 213.649 52.1118C211.321 52.1118 209.522 50.2052 209.522 47.875C209.522 45.5448 211.321 43.6383 213.649 43.6383ZM290.057 29.1274C292.809 29.1274 294.926 31.3518 294.926 33.9997C294.926 36.7536 292.809 38.9778 290.057 38.9778C287.412 38.9778 285.189 36.7536 285.189 33.9997C285.295 31.3518 287.412 29.1274 290.057 29.1274ZM270.691 51.1585C274.395 51.1585 277.464 54.2301 277.464 57.9373C277.464 61.6444 274.501 64.7161 270.691 64.7161C266.987 64.7161 264.024 61.6444 264.024 57.9373C263.918 54.2301 266.987 51.1585 270.691 51.1585ZM156.819 117.463C162.428 117.463 166.979 122.124 166.979 127.843C166.979 133.563 162.428 138.223 156.819 138.223C151.105 138.223 146.554 133.563 146.554 127.843C146.66 122.124 151.21 117.463 156.819 117.463ZM106.022 113.968C117.768 113.968 127.293 123.607 127.293 135.575C127.293 147.438 117.768 157.183 106.022 157.183C94.2745 157.183 84.75 147.544 84.75 135.575C84.8558 123.607 94.3804 113.968 106.022 113.968Z" fill="#220B78"/>
<path fill-rule="evenodd" clip-rule="evenodd" d="M277.572 561.161C402.238 561.161 507.749 478.545 542.249 365H13C47.3943 478.545 152.8 561.161 277.572 561.161V561.161Z" fill="#293163"/>
<path fill-rule="evenodd" clip-rule="evenodd" d="M518.541 420.184C528.278 402.919 536.321 384.383 542.141 365H25.0625C63.3725 471.766 165.497 548.133 285.295 548.133C383.398 548.133 469.437 497.081 518.541 420.184Z" fill="#321791"/>
<path fill-rule="evenodd" clip-rule="evenodd" d="M502.327 254.116C509.629 241.194 515.556 210.372 520.001 195.967H134.573C154.045 250.197 179.868 230.391 232.676 252.845C257.334 263.331 300.089 332.496 328.557 332.496C355.861 332.496 382.529 313.431 406.341 303.792C446.344 287.587 479.362 290.023 502.327 254.116ZM213.309 348.49C215.532 348.49 217.437 346.689 217.437 344.253C217.437 341.923 215.532 340.016 213.309 340.016C210.981 340.016 209.182 341.923 209.182 344.253C209.182 346.583 210.981 348.49 213.309 348.49ZM289.718 363C292.469 363 294.586 360.776 294.586 358.128C294.586 355.374 292.469 353.15 289.718 353.15C287.072 353.15 284.85 355.374 284.85 358.128C284.955 360.776 287.072 363 289.718 363ZM270.351 340.969C274.055 340.969 277.124 337.898 277.124 334.191C277.124 330.484 274.161 327.412 270.351 327.412C266.647 327.412 263.684 330.484 263.684 334.191C263.578 337.898 266.647 340.969 270.351 340.969ZM156.479 274.664C162.088 274.664 166.639 270.004 166.639 264.285C166.639 258.565 162.088 253.905 156.479 253.905C150.765 253.905 146.214 258.565 146.214 264.285C146.32 270.004 150.87 274.664 156.479 274.664ZM105.682 278.16C117.429 278.16 126.953 268.521 126.953 256.552C126.953 244.69 117.429 234.945 105.682 234.945C93.9347 234.945 84.4102 244.584 84.4102 256.552C84.516 268.521 94.0405 278.16 105.682 278.16Z" fill="#220B78"/>
<path fill-rule="evenodd" clip-rule="evenodd" d="M310.899 471.544C313.122 471.544 315.027 469.744 315.027 467.308C315.027 464.977 313.122 463.071 310.899 463.071C308.571 463.071 306.772 464.977 306.772 467.308C306.772 469.638 308.571 471.544 310.899 471.544ZM387.307 486.055C390.059 486.055 392.176 483.831 392.176 481.183C392.176 478.429 390.059 476.205 387.307 476.205C384.662 476.205 382.439 478.429 382.439 481.183C382.545 483.831 384.662 486.055 387.307 486.055ZM367.941 464.024C371.645 464.024 374.714 460.952 374.714 457.245C374.714 453.538 371.751 450.467 367.941 450.467C364.237 450.467 361.274 453.538 361.274 457.245C361.168 460.952 364.237 464.024 367.941 464.024ZM204.069 467.719C209.678 467.719 214.229 463.059 214.229 457.339C214.229 451.62 209.678 446.959 204.069 446.959C198.355 446.959 193.804 451.62 193.804 457.339C193.91 463.059 198.46 467.719 204.069 467.719ZM153.272 471.214C165.018 471.214 174.543 461.576 174.543 449.607C174.543 437.744 165.018 428 153.272 428C141.525 428 132 437.638 132 449.607C132.106 461.576 141.63 471.214 153.272 471.214Z" fill="#220B78"/>
</svg>
