<svg width="1768" height="941" viewBox="0 0 1768 941" fill="none" xmlns="http://www.w3.org/2000/svg">
<path fill-rule="evenodd" clip-rule="evenodd" d="M655.535 93.2299C657.017 93.2299 658.181 92.0648 658.181 90.582C658.181 89.0991 657.017 88.0399 655.535 88.0399C654.054 88.0399 652.89 89.205 652.89 90.582C652.89 92.0648 654.054 93.2299 655.535 93.2299ZM484.834 61.984C486.315 61.984 487.48 60.8189 487.48 59.336C487.48 57.8532 486.315 56.6881 484.834 56.6881C483.352 56.6881 482.188 57.8532 482.188 59.336C482.188 60.8189 483.458 61.984 484.834 61.984ZM416.892 271.279C418.373 271.279 419.538 270.114 419.538 268.631C419.538 267.148 418.373 265.983 416.892 265.983C415.41 265.983 414.246 267.148 414.246 268.631C414.246 270.008 415.41 271.279 416.892 271.279ZM562.618 536.922C564.099 536.922 565.263 535.757 565.263 534.274C565.263 532.791 564.099 531.626 562.618 531.626C561.136 531.626 559.972 532.791 559.972 534.274C559.972 535.757 561.242 536.922 562.618 536.922ZM512.077 616.248C513.559 616.248 514.723 615.083 514.723 613.706C514.723 612.329 513.559 611.058 512.077 611.058C510.596 611.058 509.432 612.223 509.432 613.706C509.432 615.189 510.702 616.248 512.077 616.248ZM567.002 626.734C568.484 626.734 569.648 625.569 569.648 624.086C569.648 622.603 568.484 621.438 567.002 621.438C565.521 621.438 564.357 622.603 564.357 624.086C564.357 625.463 565.521 626.734 567.002 626.734ZM584.322 762.789C585.804 762.789 586.968 761.624 586.968 760.141C586.968 758.658 585.804 757.493 584.322 757.493C582.841 757.493 581.676 758.658 581.676 760.141C581.676 761.73 582.946 762.789 584.322 762.789ZM483.84 719.923C485.322 719.923 486.486 718.758 486.486 717.275C486.486 715.792 485.322 714.733 483.84 714.733C482.359 714.733 481.195 715.898 481.195 717.275C481.195 718.758 482.359 719.923 483.84 719.923ZM135.972 615.438C137.454 615.438 138.618 614.273 138.618 612.79C138.618 611.307 137.454 610.142 135.972 610.142C134.491 610.142 133.327 611.307 133.327 612.79C133.432 614.273 134.597 615.438 135.972 615.438ZM822.004 655.762C823.485 655.762 824.649 654.597 824.649 653.114C824.649 651.632 823.485 650.466 822.004 650.466C820.522 650.466 819.358 651.632 819.358 653.114C819.358 654.597 820.522 655.762 822.004 655.762ZM1064.99 765.6C1066.47 765.6 1067.63 764.435 1067.63 762.952C1067.63 761.469 1066.47 760.304 1064.99 760.304C1063.5 760.304 1062.34 761.469 1062.34 762.952C1062.34 764.435 1063.61 765.6 1064.99 765.6ZM1292.41 551.115C1293.89 551.115 1295.06 549.95 1295.06 548.467C1295.06 546.984 1293.89 545.819 1292.41 545.819C1290.93 545.819 1289.77 546.984 1289.77 548.467C1289.77 549.95 1290.93 551.115 1292.41 551.115ZM1459.62 344.468C1461.1 344.468 1462.27 343.303 1462.27 341.82C1462.27 340.337 1461.1 339.172 1459.62 339.172C1458.14 339.172 1456.98 340.337 1456.98 341.82C1456.98 343.303 1458.24 344.468 1459.62 344.468ZM1417.82 245.117C1419.3 245.117 1420.46 243.952 1420.46 242.469C1420.46 240.986 1419.3 239.821 1417.82 239.821C1416.34 239.821 1415.17 240.986 1415.17 242.469C1415.17 243.952 1416.34 245.117 1417.82 245.117ZM1536.03 191.098C1537.51 191.098 1538.67 189.933 1538.67 188.556C1538.67 187.074 1537.51 185.908 1536.03 185.908C1534.55 185.908 1533.49 187.074 1533.49 188.556C1533.38 189.933 1534.55 191.098 1536.03 191.098ZM1619.1 184.955C1620.59 184.955 1621.75 183.79 1621.75 182.307C1621.75 180.824 1620.59 179.659 1619.1 179.659C1617.62 179.659 1616.46 180.824 1616.46 182.307C1616.46 183.79 1617.62 184.955 1619.1 184.955ZM1514.33 142.588C1515.82 142.588 1516.98 141.423 1516.98 139.94C1516.98 138.457 1515.82 137.292 1514.33 137.292C1512.85 137.292 1511.69 138.457 1511.69 139.94C1511.69 141.529 1512.85 142.588 1514.33 142.588ZM1357.71 17.6042C1359.19 17.6042 1360.35 16.4391 1360.35 14.9562C1360.35 13.4734 1359.19 12.3083 1357.71 12.3083C1356.23 12.3083 1355.06 13.4734 1355.06 14.9562C1355.06 16.3332 1356.23 17.6042 1357.71 17.6042ZM1747.16 17.6042C1748.64 17.6042 1749.8 16.4391 1749.8 14.9562C1749.8 13.4734 1748.64 12.3083 1747.16 12.3083C1745.68 12.3083 1744.51 13.4734 1744.51 14.9562C1744.51 16.3332 1745.68 17.6042 1747.16 17.6042ZM1736.68 218.955C1738.16 218.955 1739.33 217.79 1739.33 216.307C1739.33 214.824 1738.16 213.659 1736.68 213.659C1735.2 213.659 1734.03 214.824 1734.03 216.307C1734.03 217.79 1735.2 218.955 1736.68 218.955ZM1605.98 475.277C1607.46 475.277 1608.63 474.112 1608.63 472.63C1608.63 471.147 1607.46 469.982 1605.98 469.982C1604.5 469.982 1603.34 471.147 1603.34 472.63C1603.34 474.112 1604.5 475.277 1605.98 475.277ZM1723.56 587.763C1725.04 587.763 1726.2 586.598 1726.2 585.115C1726.2 583.632 1725.04 582.467 1723.56 582.467C1722.08 582.467 1720.91 583.632 1720.91 585.115C1720.91 586.598 1722.18 587.763 1723.56 587.763ZM1660.91 773.438C1662.39 773.438 1663.55 772.273 1663.55 770.79C1663.55 769.307 1662.39 768.248 1660.91 768.248C1659.43 768.248 1658.26 769.413 1658.26 770.79C1658.26 772.273 1659.43 773.438 1660.91 773.438ZM1323.74 757.762C1325.22 757.762 1326.38 756.597 1326.38 755.114C1326.38 753.631 1325.22 752.466 1323.74 752.466C1322.26 752.466 1321.09 753.631 1321.09 755.114C1321.09 756.597 1322.26 757.762 1323.74 757.762ZM1185.21 885.923C1186.69 885.923 1187.85 884.758 1187.85 883.275C1187.85 881.792 1186.69 880.627 1185.21 880.627C1183.73 880.627 1182.56 881.792 1182.56 883.275C1182.67 884.758 1183.83 885.923 1185.21 885.923ZM1062.45 106.47C1063.93 106.47 1064.99 105.305 1064.99 103.822C1064.99 102.339 1063.82 101.174 1062.45 101.174C1060.96 101.174 1059.8 102.339 1059.8 103.822C1059.8 105.305 1060.96 106.47 1062.45 106.47ZM116.339 30.6322C117.82 30.6322 118.879 29.4671 118.879 27.9842C118.879 26.5013 117.714 25.3362 116.339 25.3362C114.857 25.3362 113.693 26.5013 113.693 27.9842C113.799 29.4671 114.857 30.6322 116.339 30.6322ZM131.366 44.6134C133.8 44.6134 135.705 42.7069 135.705 40.2707C135.705 37.9405 133.8 35.9281 131.366 35.9281C129.038 35.9281 127.027 37.9405 127.027 40.2707C127.027 42.7069 129.038 44.6134 131.366 44.6134ZM273.6 9.44849C275.928 9.44849 277.939 7.54196 277.939 5.10584C277.939 2.77563 275.928 0.763184 273.6 0.763184C271.166 0.763184 269.261 2.77563 269.261 5.10584C269.261 7.54196 271.166 9.44849 273.6 9.44849ZM325.879 59.1242C328.208 59.1242 330.218 57.1118 330.218 54.7816C330.218 52.3454 328.208 50.4389 325.879 50.4389C323.445 50.4389 321.54 52.3454 321.54 54.7816C321.54 57.2177 323.445 59.1242 325.879 59.1242ZM656.382 34.3393C658.816 34.3393 660.721 32.3269 660.721 29.9967C660.721 27.5605 658.816 25.654 656.382 25.654C654.054 25.654 652.043 27.6665 652.043 29.9967C652.043 32.3269 654.054 34.3393 656.382 34.3393ZM259.631 376.032C261.959 376.032 263.97 374.125 263.97 371.689C263.97 369.359 261.959 367.347 259.631 367.347C257.196 367.347 255.292 369.359 255.292 371.689C255.292 374.125 257.196 376.032 259.631 376.032ZM673.678 689.65C676.006 689.65 678.017 687.743 678.017 685.307C678.017 682.977 676.006 680.964 673.678 680.964C671.244 680.964 669.339 682.977 669.339 685.307C669.339 687.637 671.244 689.65 673.678 689.65ZM4.85069 817.001C7.28475 817.001 9.18966 814.988 9.18966 812.658C9.18966 810.328 7.28475 808.315 4.85069 808.315C2.52246 808.315 0.511719 810.328 0.511719 812.658C0.511719 815.094 2.52246 817.001 4.85069 817.001ZM1038.42 941.001C1040.86 941.001 1042.76 939.094 1042.76 936.658C1042.76 934.328 1040.86 932.315 1038.42 932.315C1036.09 932.315 1034.08 934.328 1034.08 936.658C1034.08 939.094 1035.99 941.001 1038.42 941.001ZM1240.13 480.679C1242.57 480.679 1244.47 478.667 1244.47 476.337C1244.47 473.901 1242.57 471.994 1240.13 471.994C1237.8 471.994 1235.79 473.901 1235.79 476.337C1235.79 478.667 1237.7 480.679 1240.13 480.679ZM1658.37 691.775C1660.8 691.775 1662.71 689.868 1662.71 687.432C1662.71 685.102 1660.8 683.089 1658.37 683.089C1656.04 683.089 1654.03 685.102 1654.03 687.432C1654.03 689.868 1656.04 691.775 1658.37 691.775ZM967.624 211.541C970.058 211.541 971.963 209.528 971.963 207.198C971.963 204.762 970.058 202.855 967.624 202.855C965.295 202.855 963.285 204.762 963.285 207.198C963.285 209.634 965.19 211.541 967.624 211.541ZM1652.55 45.6726C1654.87 45.6726 1656.89 43.6601 1656.89 41.3299C1656.89 38.8938 1654.87 36.9873 1652.55 36.9873C1650.22 36.9873 1648.21 38.8938 1648.21 41.3299C1648.21 43.6601 1650.22 45.6726 1652.55 45.6726ZM694.374 447.527C695.327 447.527 696.173 446.68 696.173 445.726C696.173 444.773 695.327 443.926 694.374 443.926C693.422 443.926 692.575 444.773 692.575 445.726C692.575 446.785 693.422 447.527 694.374 447.527ZM692.575 144.6C693.528 144.6 694.374 143.753 694.374 142.8C694.374 141.846 693.634 140.999 692.575 140.999C691.623 140.999 690.776 141.846 690.776 142.8C690.776 143.753 691.623 144.6 692.575 144.6ZM997.044 43.5542C997.997 43.5542 998.843 42.7069 998.843 41.7536C998.843 40.8003 998.102 39.953 997.044 39.953C995.986 39.953 995.245 40.6944 995.245 41.7536C995.245 42.8128 996.092 43.5542 997.044 43.5542ZM1368.18 289.391C1369.14 289.391 1369.98 288.543 1369.98 287.59C1369.98 286.637 1369.14 285.79 1368.18 285.79C1367.23 285.79 1366.39 286.637 1366.39 287.59C1366.39 288.649 1367.13 289.391 1368.18 289.391ZM1632.12 289.391C1633.07 289.391 1633.92 288.543 1633.92 287.59C1633.92 286.637 1633.18 285.79 1632.12 285.79C1631.17 285.79 1630.32 286.637 1630.32 287.59C1630.32 288.649 1631.06 289.391 1632.12 289.391ZM1697.42 522.199C1698.37 522.199 1699.22 521.458 1699.22 520.399C1699.22 519.34 1698.37 518.598 1697.42 518.598C1696.47 518.598 1695.62 519.445 1695.62 520.399C1695.62 521.352 1696.47 522.199 1697.42 522.199ZM1078 543.171C1078.96 543.171 1079.8 542.324 1079.8 541.371C1079.8 540.417 1078.96 539.57 1078 539.57C1077.05 539.57 1076.2 540.311 1076.2 541.371C1076.2 542.43 1077.05 543.171 1078 543.171ZM1180.02 747.17C1180.97 747.17 1181.82 746.323 1181.82 745.369C1181.82 744.416 1180.97 743.569 1180.02 743.569C1179.07 743.569 1178.22 744.416 1178.22 745.369C1178.22 746.323 1178.96 747.17 1180.02 747.17ZM427.369 404.524C428.321 404.524 429.168 403.783 429.168 402.723C429.168 401.664 428.321 400.923 427.369 400.923C426.416 400.923 425.57 401.77 425.57 402.723C425.57 403.677 426.311 404.524 427.369 404.524ZM246.931 199.89C247.884 199.89 248.73 199.042 248.73 198.089C248.73 197.136 247.884 196.288 246.931 196.288C245.979 196.288 245.132 197.136 245.132 198.089C245.132 199.148 245.979 199.89 246.931 199.89ZM241.746 331.334C242.698 331.334 243.545 330.487 243.545 329.534C243.545 328.581 242.698 327.733 241.746 327.733C240.793 327.733 239.946 328.581 239.946 329.534C239.946 330.487 240.793 331.334 241.746 331.334ZM142.478 514.361C143.431 514.361 144.277 513.514 144.277 512.561C144.277 511.607 143.431 510.76 142.478 510.76C141.526 510.76 140.679 511.502 140.679 512.561C140.679 513.62 141.42 514.361 142.478 514.361ZM202.377 159.641C203.33 159.641 204.176 158.899 204.176 157.84C204.176 156.887 203.33 156.04 202.377 156.04C201.425 156.04 200.578 156.887 200.578 157.84C200.578 158.899 201.425 159.641 202.377 159.641ZM367.258 315.658C368.211 315.658 369.057 314.811 369.057 313.858C369.057 312.905 368.317 312.057 367.258 312.057C366.306 312.057 365.459 312.905 365.459 313.858C365.353 314.811 366.2 315.658 367.258 315.658ZM149.413 808.421C150.365 808.421 151.212 807.574 151.212 806.621C151.212 805.668 150.365 804.82 149.413 804.82C148.46 804.82 147.613 805.668 147.613 806.621C147.613 807.574 148.354 808.421 149.413 808.421ZM400.13 766.845C401.083 766.845 401.929 765.997 401.929 765.044C401.929 764.091 401.188 763.243 400.13 763.243C399.178 763.243 398.331 764.091 398.331 765.044C398.331 766.103 399.178 766.845 400.13 766.845ZM1765.36 908.272C1766.31 908.272 1767.16 907.424 1767.16 906.471C1767.16 905.518 1766.31 904.671 1765.36 904.671C1764.41 904.671 1763.56 905.518 1763.56 906.471C1763.67 907.53 1764.41 908.272 1765.36 908.272ZM1384.59 656.398C1385.54 656.398 1386.39 655.551 1386.39 654.597C1386.39 653.644 1385.54 652.797 1384.59 652.797C1383.64 652.797 1382.79 653.538 1382.79 654.597C1382.79 655.657 1383.64 656.398 1384.59 656.398Z" fill="white"/>
</svg>
